<?xml version="1.0" encoding="UTF-8" standalone="no"?>
<svg
   version="1.1"
   id="Layer_1"
   x="0px"
   y="0px"
   width="793.73303"
   viewBox="0 0 793.73303 793.73303"
   enable-background="new 0 0 1024 1024"
   xml:space="preserve"
   height="793.73303"
   xmlns="http://www.w3.org/2000/svg"
   xmlns:svg="http://www.w3.org/2000/svg">
  <defs
   id="defs544" />
  <ellipse
   style="fill:#354a5c;fill-opacity:1;stroke:#fbf8dd;stroke-width:0"
   id="path1"
   cx="401.96405"
   cy="380.63901"
   rx="385.76562"
   ry="366.91714" />
  <path
   fill="#a73c27"
   opacity="1"
   stroke="none"
   d="m 38.82245,504.80265 -7.11118,-76.5589 c -1.72419,-18.56263 116.22525,148.51123 125.19562,160.30743 3.47739,4.75269 71.00791,85.03402 72.31321,91.19539 L 144.21934,626.92525 C 123.64494,625.03099 101.68987,597.38615 83.4789,585.99057 70.1504,578.70237 28.01483,463.67932 38.82245,504.80265 Z"
   id="path21" />
  <path
   fill="#371528"
   opacity="1"
   stroke="none"
   d="m 766.64282,409.70932 c -0.0793,6.56153 -0.48144,12.95765 -0.95691,19.79206 -0.51452,0.88794 -0.958,1.33508 -1.70508,1.9107 -0.80749,0.47016 -1.37994,0.71064 -2.20165,1.1446 -0.44416,0.26983 -0.6261,0.3731 -1.0951,0.60522 -1.08282,0.48993 -1.69653,1.10553 -2.67407,1.79773 -23.75409,17.98041 -48.42487,34.05597 -72.8045,50.52905 -47.97504,32.41638 -95.57135,65.37989 -143.23304,98.25031 -1.91998,1.32416 -3.72387,2.79779 -5.86718,4.40069 -1.10328,0.99457 -2.28546,1.31934 -3.16584,2.5871 -0.89141,0.93481 -1.67523,1.44312 -2.80932,2.06207 -1.88959,0.57575 -3.38275,0.89539 -4.80939,1.98725 -13.81305,10.57183 -28.5119,19.88904 -42.71863,29.90735 -2.70703,1.90899 -5.47967,3.71215 -8.2475,6.11822 -0.43469,0.38532 -0.61554,0.5304 -1.08905,0.85974 -3.51763,1.31232 -6.07507,3.44422 -8.83245,5.88025 -3.05689,1.55963 -5.47901,3.49567 -8.36353,5.3186 -1.82159,0.96039 -3.4743,1.56958 -4.88104,3.16736 -0.39313,0.38263 -0.55939,0.52655 -1.00177,0.84906 -1.92377,0.8866 -3.19977,1.97272 -3.9339,4.01642 -0.81226,2.55573 -0.56915,4.87299 -0.70734,7.521 -0.26935,5.40887 -4.57251,8.50757 -6.14972,13.31738 -0.14837,0.86139 -0.27496,1.34229 -0.63287,2.13873 -4.03894,3.92017 -5.88257,8.84296 -8.21314,13.32819 -6.10449,11.74817 -13.4497,22.79248 -19.52209,34.96716 -4.99695,4.48084 -6.26874,10.77191 -9.53442,15.86737 -0.70673,1.10266 -1.1933,2.38495 -2.05591,3.36823 -1.91046,2.17798 -3.71704,2.37231 -5.61459,-0.24463 -1.6554,-2.28296 -2.24006,-5.15192 -4.44181,-7.50891 -0.49115,-0.69714 -0.7048,-1.13141 -0.94684,-1.93616 -1.4772,-4.26404 -3.76767,-7.66858 -6.44467,-11.25055 -8.48819,-14.6604 -17.31058,-28.73822 -24.60977,-43.6662 -0.95373,-1.95056 -2.57022,-3.47479 -3.45843,-5.8562 -0.84006,-1.31879 -1.63032,-2.23834 -2.34821,-3.63824 -2.27362,-3.74945 -3.56528,-7.40308 -3.23584,-11.49256 0.27887,-3.46167 -0.88107,-6.11071 -4.48834,-7.77716 -24.23877,-16.70788 -47.79529,-33.76062 -71.74802,-50.24774 -2.05304,-1.41315 -3.75546,-3.27917 -6.32046,-4.55395 -2.82041,-1.03565 -4.93973,-2.5821 -7.39234,-4.26612 C 252.08307,583.18741 245.16928,578.82529 238.4028,574.3024 195.66406,545.73398 153.77911,515.91233 110.97472,487.44571 93.37907,475.74393 74.0319,466.17748 58.61862,451.72873 42.57022,436.6846 28.99252,437.83025 26.92612,418.21091 c 0.39142,-0.88409 0.40051,-1.40307 0.10955,-2.15503 -0.24945,-1.28125 -0.33203,-2.3515 -0.36651,-3.8222 0.58411,-0.88184 1.22261,-0.91541 2.20779,-0.73706 0.5185,0.17212 0.71939,0.2594 1.20265,0.51312 0.97477,0.67279 1.55892,1.35828 2.7978,1.60699 10.02082,5.54957 18.80119,12.36951 27.99613,18.56092 13.99839,9.42578 28.09736,18.70465 42.26413,28.51758 4.20321,2.12237 7.46744,5.00036 10.97962,7.49267 6.61867,4.69678 13.17694,9.45038 20.08888,13.73657 18.4746,11.45642 35.65572,24.82044 53.81178,36.76648 9.12296,6.00251 17.95435,12.47888 26.96076,18.67987 1.19046,0.81971 2.46197,0.87842 4.06186,1.36762 12.251,10.89508 26.06528,19.03857 39.03534,28.33288 17.58899,12.60425 35.67764,24.49005 53.58056,36.64063 10.32843,7.0097 20.22928,14.62341 30.70328,21.42071 3.78543,2.45661 4.4184,2.33942 4.84656,-2.07702 0.62717,-6.46973 -0.43475,-12.93958 -0.40048,-19.41962 0.0107,-2.02319 -1.46372,-3.30023 -2.78733,-4.55493 -4.3529,-4.12622 -8.89801,-8.01581 -13.75979,-11.55212 -5.2757,-3.83747 -5.38187,-6.10852 -2.47931,-11.80091 8.45999,-16.59118 17.6163,-32.8244 25.86496,-50.12091 -9.61969,4.9773 -18.1825,10.75018 -26.81564,16.4115 -13.50287,8.85474 -27.12824,17.52045 -40.84443,26.039 -7.26233,4.51032 -9.94873,3.02814 -9.94607,-5.50634 0.008,-24.63642 -0.33734,-49.27497 0.28775,-73.90925 0.0295,-1.1643 0.0265,-2.33111 -0.12085,-3.88592 -0.40833,-1.75873 -0.35895,-3.12616 -0.006,-4.92102 0.13907,-2.49652 0.19272,-4.56506 -0.0938,-7.08301 -0.83658,-10.88306 0.86581,-21.29413 0.12268,-32.19244 -0.82745,-5.40784 -0.38873,-10.37445 -0.28659,-15.77668 0.51361,-2.4638 0.34988,-4.51196 0.35217,-6.97143 -2.32413,-10.96332 2.67493,-19.44477 7.89777,-28.26444 0.89087,-2.25705 2.03,-3.92407 3.36072,-5.90683 2.36837,-3.4956 4.27832,-6.83114 6.12982,-10.63348 9.49536,-18.01657 19.84103,-35.12186 29.91693,-52.37073 5.62222,-9.62469 9.35449,-19.31198 8.41678,-30.67187 -0.65635,-7.95096 0.16174,-15.96253 0.14303,-24.35034 -0.59814,-3.74854 -0.34344,-7.10877 -0.17892,-10.86451 0.61361,-4.36859 0.32803,-8.35687 0.28521,-12.33508 -0.0449,-4.17117 -1.93142,-6.5979 -6.8319,-6.27658 -0.62159,-0.17477 -0.85968,-0.27759 -1.40076,-0.62347 -1.3183,-1.64856 -0.84036,-3.15561 -0.52762,-4.99979 0.43152,-1.45984 0.98294,-2.47385 1.71292,-3.76755 0.25751,-0.48358 0.35755,-0.67755 0.6341,-1.14383 0.66946,-0.94601 1.35821,-1.50274 1.50814,-2.73837 1.07712,-6.13239 4.55951,-10.74203 7.66388,-15.91226 0.42487,-0.91706 0.73966,-1.5119 1.1453,-2.43082 0.2392,-0.7381 0.39844,-1.15024 0.75555,-1.83542 1.23255,-1.39157 1.7421,-2.81677 2.47409,-4.48678 0.1821,-0.52283 0.26572,-0.73011 0.4975,-1.24155 1.86951,-3.26984 3.5372,-6.26184 4.81107,-9.81888 0.64547,-1.24176 1.31195,-2.08639 1.8945,-3.34421 0.69781,-1.40027 1.38513,-2.453 1.94897,-3.92431 0.35752,-0.89426 0.70337,-1.44367 1.04914,-2.35962 0.39031,-0.93363 0.73162,-1.52271 1.15722,-2.46265 7.5116,-13.25638 13.85806,-26.71557 20.6665,-40.34128 1.46299,-3.02507 2.75794,-5.74936 5.66095,-7.69961 4.76615,-0.37645 6.65403,-2.98136 7.26358,-7.13495 1.11542,-7.60075 5.76218,-13.63603 9.33606,-20.125597 1.14359,-2.0766 2.99497,-1.93136 4.57425,-0.35749 1.84821,1.841867 2.33875,4.292627 1.09436,6.434217 -2.1499,3.69995 -0.2033,5.56794 2.63733,7.13473 3.20026,1.76505 6.30139,3.68483 9.71039,5.82292 0.47431,0.409 0.64508,0.59767 1.00836,1.1211 1.52069,7.32223 3.19989,14.11222 7.59882,20.01995 2.27594,3.05661 2.9892,6.99576 3.57568,10.71692 0.62329,3.95496 -2.42846,6.19803 -5.39245,8.61219 -3.69501,-0.18363 -4.35504,-3.07154 -5.54401,-5.35126 -5.30627,-10.17481 -10.02679,-20.65704 -16.34576,-31.17822 -1.99778,3.19973 -3.71177,6.10498 -5.24802,9.09358 -14.37833,27.97066 -28.36108,56.13963 -42.20984,84.37547 -0.36655,0.74744 -0.66998,1.52527 -1.03265,2.27323 -1.46167,3.01473 -1.01065,4.73523 2.81689,4.55432 2.49051,-0.11771 5.01749,-0.24109 7.48627,0.0274 7.57568,0.8241 12.97317,-1.26834 18.31903,-7.67374 11.62405,-13.92791 31.39645,-12.56808 42.09445,2.13468 3.02625,4.15912 6.18646,5.95746 11.17218,5.56332 4.13684,-0.32705 8.32776,-0.22531 12.47901,-0.0221 3.42248,0.16751 4.45269,-1.37164 4.08618,-4.83045 0.25909,-1.54461 0.84796,-2.56713 1.33807,-3.6184 1.20197,-2.57828 2.2049,-5.60334 6.10791,-3.97699 3.0824,1.28445 4.94,5.37832 3.15698,8.39816 -2.83306,4.79822 -5.44555,10.09027 -12.02172,11.64017 -0.62055,-0.0389 -0.86274,-0.0877 -1.43305,-0.29358 -0.72467,-0.45514 -0.9718,-1.05893 -1.35467,-1.18247 -4.68494,-1.51156 -9.22864,-0.543 -13.89301,1.21228 -2.73224,3.61566 -6.53235,0.6944 -9.91321,2.37088 1.16614,2.59754 4.46301,4.00415 4.55506,7.5697 -2.95197,11.54435 -10.50538,17.8754 -21.52851,19.97101 -11.55783,2.19727 -22.67666,-2.30752 -27.95718,-11.88403 -2.93952,-5.33093 -6.46857,-7.52917 -12.28381,-6.70306 -3.7179,0.52816 -7.62952,-0.94397 -11.43155,1.42166 -1.48771,2.63351 -1.60901,5.10153 -1.60837,7.62689 0.0156,59.0806 0.018,118.16119 -0.009,177.24179 -10e-4,2.52887 0.35852,4.9671 1.11706,7.85053 0.68927,5.70819 0.47849,10.9616 0.23374,16.64807 -0.83057,3.55981 -2.0047,6.65997 -0.58683,10.30096 0.64142,2.75855 0.043,4.97144 -0.64688,6.79968 0.93161,-5.122 4.37958,-9.50445 6.78791,-14.37561 11.42681,-23.11218 23.93167,-45.67047 35.44326,-68.74209 1.41794,-2.84186 2.47083,-7.06299 6.31708,-6.97251 3.77844,0.0889 4.68201,4.28986 6.19428,7.14957 14.30237,27.04672 27.70416,54.5654 42.83416,81.32877 0.71765,-9.26801 0.0163,-18.57953 0.53046,-28.23609 0.93897,-1.98779 0.43555,-3.59143 -0.0864,-5.61584 -0.088,-32.21717 -0.25953,-64.01431 0.13403,-96.26288 4.29346,-4.40604 2.95563,-9.78528 3.07153,-14.45102 0.24994,-10.05881 0.44867,-20.14191 0.18366,-30.21448 -0.0507,-1.92587 0.49878,-4.05191 -1.75336,-5.82983 -2.1687,-4.75586 -1.96802,-9.32703 -1.20703,-14.35263 2.67438,-2.37265 2.96161,-5.1247 2.96551,-7.99472 0.007,-5.29657 -0.004,-10.59314 0.0121,-15.88971 0.004,-1.48868 -0.10205,-2.99228 0.17566,-4.45966 0.55664,-2.94162 1.68591,-5.75201 5.20331,-5.54455 3.65368,0.21548 3.95404,3.14187 4.1585,6.18948 0.45746,6.8183 -1.38647,13.48956 -1.04174,20.27838 0.0887,1.74753 -0.52369,3.71967 1.68481,5.30618 1.39905,1.87168 1.73285,3.59696 1.44244,5.88388 -0.0931,0.99982 -0.1206,1.56891 -0.13671,2.55585 -0.0241,2.87113 0.0422,5.32569 -0.10633,8.17542 -0.12005,0.65188 -0.18439,0.9075 -0.40552,1.52044 -2.33532,4.82679 -2.02978,9.35743 -0.30651,14.25034 0.45275,1.05231 0.531,1.79953 0.45044,2.92786 -1.67621,3.16607 -1.10254,5.27978 1.02594,7.89447 6.25854,7.68798 11.67846,15.95443 14.08123,25.79736 0.16394,0.67163 0.37909,1.27246 0.93116,1.68964 6.29632,4.75799 7.95312,11.95062 9.84515,18.97094 1.20532,4.47226 1.77393,9.05127 6.10883,12.08042 3.31744,2.31823 1.28344,5.75064 0.75378,8.81195 4.51288,-2.25901 5.62585,-1.95343 7.36194,2.58728 0.92834,2.42816 2.33154,4.24911 4.29614,5.92462 3.77246,3.21741 6.30377,7.26388 6.60138,12.37506 0.0862,1.47961 0.004,3.23761 -1.72516,3.77948 -1.7619,0.55225 -2.67267,-0.91693 -3.49493,-2.1853 -0.98737,-1.52307 -1.659,-3.26264 -3.70209,-5.00684 1.07886,3.14771 2.91211,5.60803 1.23566,8.71015 -2.98456,1.00274 -4.18842,-1.00653 -5.24128,-2.81751 -7.56335,-13.00784 -15.50353,-25.79452 -22.84979,-38.92911 -0.89416,-1.59869 -1.72369,-3.23611 -0.89764,-5.46231 1.6781,-1.40445 2.1441,-2.90213 1.76214,-5.22217 -0.4212,1.75281 -0.0121,3.23258 -1.22198,4.57386 -1.81629,0.98538 -2.95465,0.11175 -3.62561,-1.02442 -3.44086,-5.82651 -7.91901,-11.09741 -9.70349,-18.19711 1.89654,-4.45609 2.77685,-8.39542 -1.68427,-11.50864 -0.82049,3.4683 2.81537,6.2327 1.67938,10.20279 0.94257,21.17774 0.1612,41.96561 0.37635,62.746 0.0256,2.47754 0.29358,5.00312 -0.85425,7.78626 -4.31159,2.96783 -4.80518,-0.42792 -4.92487,-2.90454 -0.36047,-7.45905 -0.78399,-14.95114 0.24579,-22.39465 0.28742,-2.07734 0.54932,-4.13157 0.46668,-6.22785 0.15558,3.20752 -0.15033,6.28146 -1.9621,9.09857 -1.43378,2.22937 -0.95959,4.8364 -1.00714,7.30814 -0.064,3.32547 -0.0243,6.65286 -0.0158,9.9794 0.0171,6.64844 0.0203,6.64844 6.48072,8.13666 2.51794,5.97546 1.63,11.78619 0.88537,17.99554 -2.86072,2.4931 -3.51544,5.20557 -3.50623,8.58679 0.0168,6.10944 0.91974,12.22455 0.11555,18.32563 -0.39124,2.96814 1.22888,5.01538 3.01055,7.50921 0.64496,1.76538 0.43232,3.20276 0.52564,5.04822 0.002,1.29956 -0.005,2.16779 0.13708,3.46997 0.73798,2.5177 -0.0233,4.58844 0.0963,7.11639 0.43133,12.29944 0.55102,24.14759 -0.12177,36.4394 -0.35864,1.01123 -0.6673,1.53058 -1.39044,2.28228 -0.5907,0.39637 -0.8493,0.51111 -1.52417,0.62641 -1.77045,-0.58728 -2.19592,-1.86969 -2.84088,-3.42511 -2.64832,-4.75635 -4.39813,-4.97974 -9.51202,-1.30023 -2.22529,1.16583 -4.34034,1.61334 -6.70264,2.41882 -4.74121,-0.59412 -6.86902,1.24316 -7.57703,5.70337 -0.5686,3.58124 -1.26758,7.06946 -0.53009,11.0166 0.88062,2.55182 3.01929,3.78961 4.2732,6.12219 1.36767,6.41913 3.97967,11.12006 10.828,12.41815 2.71094,0.5138 4.36481,2.90449 5.43548,5.43274 0.83814,1.97931 1.70063,3.95087 2.47388,5.95722 2.99487,7.77148 2.28912,9.79089 -5.27747,14.23584 -33.7752,2.04266 -67.21795,0.1687 -101.01565,1.099 4.5285,4.34411 9.32519,8.05224 13.95343,11.91803 10.09479,8.43152 19.51904,17.61084 29.54385,26.11975 3.17047,2.69104 5.26551,2.72406 8.37397,-0.25226 13.34967,-12.78198 27.74212,-24.37988 41.96673,-36.16211 1.41059,-1.16833 2.82532,-2.36023 5.15265,-2.47821 2.50482,1.24469 4.07697,0.59082 5.38776,-1.35358 1.61157,-2.39038 3.72345,-3.84515 6.74273,-2.78204 1.92169,0.67658 2.8487,2.22174 2.91461,4.21796 0.0999,3.02411 -1.54406,5.04821 -4.11962,6.23223 -2.53223,1.16413 -5.19233,1.89124 -7.1341,4.21076 -1.6983,2.02881 -4.02649,0.30902 -7.12366,0.24512 3.5655,3.15515 1.66449,5.93939 0.40473,9.1109 -0.19122,0.55218 -0.29181,0.76385 -0.59479,1.26153 -3.42609,4.83771 -6.23651,9.73023 -11.03766,13.42328 -1.07263,1.01117 -1.74029,1.96649 -3.06744,2.68293 -2.7674,0.58471 -4.4494,2.24291 -6.0755,3.90661 -7.10333,7.26776 -15.07202,13.61438 -22.10602,20.96643 -4.33636,4.53253 -5.72967,4.48535 -10.56558,0.67829 -7.73508,-6.08918 -13.84992,-13.94324 -21.66321,-19.96253 -1.70917,-1.31671 -3.26721,-2.85156 -5.01526,-4.12122 -1.09714,-0.79693 -0.81811,0.4112 -1.01773,1.28083 -1.1228,11.83056 -1.00656,23.289 0.0571,35.09143 9.18719,19.42981 20.28372,37.3797 30.43256,55.84473 2.02459,3.68365 2.84124,3.62091 4.82208,-0.0102 9.77893,-17.92578 19.77838,-35.73004 29.73859,-53.98865 2.54504,-5.16046 0.44695,-10.40893 1.75262,-15.72906 3.63031,-2.5705 3.39038,-5.92523 2.42291,-9.09784 -1.38794,-4.55182 -0.87811,-8.03455 3.82214,-10.21014 1.21314,-0.56159 1.74006,-1.92304 2.46058,-3.02497 0.99499,-1.52173 2.3302,-2.29864 4.53051,-1.36407 1.79694,2.17261 1.70429,4.35492 1.26868,6.9527 -1.47278,2.70221 -2.29535,5.12402 -2.02716,7.92956 0.20691,2.16535 1.51135,2.9422 2.89105,1.73901 3.1305,-2.73016 7.59351,-4.29229 8.78992,-9.3562 6.39172,-6.64935 13.9743,-11.23712 21.2392,-16.13543 9.22912,-6.22278 18.16534,-12.86933 27.5238,-18.89563 14.94055,-9.62116 29.4093,-19.93091 44.01611,-30.0398 7.64783,-5.29266 14.92908,-11.11346 23.25202,-16.05719 6.84411,-2.31378 11.17767,-7.72723 16.81018,-11.24139 10.56317,-6.5907 20.36017,-14.33808 30.41528,-21.65192 10.76441,-7.82971 21.88818,-15.13336 32.74768,-22.80523 12.59418,-8.89741 25.30463,-17.70624 38.74622,-26.02576 21.99566,-14.59204 43.31842,-29.52985 64.7503,-44.30963 3.77265,-2.60169 7.42047,-5.55506 12.18512,-6.93409 z"
   id="path11" />
  <path
   fill="#391226"
   opacity="1"
   stroke="none"
   d="m 335.91925,762.57834 c 0.40781,-6.60266 -5.7377,-9.21808 -8.13724,-13.95312 -9.0744,-11.37646 -101.22291,-118.14325 -91.42854,-128.14353 l 105.26269,71.44362 c 5.22376,1.97089 21.91274,24.41811 25.62929,28.12746 2.10028,5.15161 6.58582,7.83606 9.79285,11.59271 5.48315,6.42273 17.06543,18.7229 17.06543,18.7229 -55.60971,-62.31808 99.2963,85.86933 -58.18448,12.20996 z"
   id="path17" />
  <path
   fill="#46595a"
   opacity="1"
   stroke="none"
   d="m 339.40143,32.054143 c -3.38715,3.9364 -8.52927,3.39113 -13.27338,4.17568 -12.574,2.07942 -24.87265,5.30021 -37.0524,9.00335 -0.96933,0.29471 -1.8981,0.63883 -3.07354,-0.30589 17.0784,-6.28067 34.99594,-9.76558 53.39932,-12.87314 z"
   id="path35" />
  <path
   fill="#46595a"
   opacity="1"
   stroke="none"
   d="m 27.81398,363.22837 c 1.68079,3.79965 0.86316,8.0665 0.56143,12.34784 -0.85226,12.09366 -1.38156,24.19403 0.35697,36.6698 -0.48854,0.1679 -0.98153,-0.0671 -1.74482,-0.35743 -1.98552,-16.16482 -0.61932,-32.21127 0.82642,-48.66021 z"
   id="path36" />
  <path
   fill="#3b1225"
   opacity="1"
   stroke="none"
   d="m 91.21364,604.262 c -4.90511,-6.23279 -9.08916,-12.93964 -13.1534,-20.09522 0.56192,-0.97186 1.30261,-1.12133 2.49721,-0.72656 0.35908,0.17883 0.42564,0.18109 0.44144,0.21045 4.1002,3.33533 7.94891,6.84998 10.2637,11.70697 1.19197,2.5011 2.70054,4.96594 0.8109,8.15106 -0.37986,0.40314 -0.51459,0.50653 -0.85985,0.7533 z"
   id="path37" />
  <path
   fill="#405a69"
   opacity="1"
   stroke="none"
   d="m 127.03334,146.58228 c -2.3267,0.16605 -2.27077,3.89023 -5.27949,2.75851 2.80451,-3.59832 5.9729,-7.0565 9.4363,-10.66549 0.51467,-0.0823 0.73427,-0.0138 1.15914,0.33264 0.47998,0.93123 0.51932,1.60701 0.29993,2.62027 -0.61826,1.59692 -1.85122,2.23593 -2.92005,3.44702 -0.89691,0.74765 -1.81355,0.75293 -2.69583,1.50705 z"
   id="path40" />
  <path
   fill="#405a69"
   opacity="1"
   stroke="none"
   d="m 109.04767,166.65085 c -1.15312,0.75653 -1.67168,2.05985 -3.40918,1.6131 2.16307,-3.25745 4.64572,-6.38153 7.41711,-9.65872 2.72452,2.93786 0.84873,4.90622 -1.87164,6.97854 -0.36328,0.22931 -0.36914,0.23609 -0.37321,0.23792 -0.37372,0.53513 -0.94001,0.61993 -1.76308,0.82916 z"
   id="path42" />
  <path
   fill="#364c5e"
   opacity="1"
   stroke="none"
   d="m 55.22627,252.31653 c 1.06108,3.56876 -0.31823,6.61267 -3.41453,9.28488 0.38269,-3.09713 1.35843,-6.21887 3.41453,-9.28488 z"
   id="path46" />
  <path
   fill="#46595a"
   opacity="1"
   stroke="none"
   d="m 704.79034,190.33243 c 0.0671,0.52692 0.0599,0.72363 0.0334,1.21491 -2.69824,1.69604 -2.79169,-0.71595 -3.7904,-2.42206 -0.99341,-1.7359 -1.31611,-3.26425 -1.22962,-5.28916 1.63843,1.78452 3.27545,3.97529 4.98663,6.49631 z"
   id="path47" />
  <path
   fill="#405a69"
   opacity="1"
   stroke="none"
   d="m 119.55963,151.05561 c 0.28113,2.3201 -0.77481,4.01492 -3.60834,4.71203 0.8626,-1.49627 2.08947,-3.03295 3.60834,-4.71203 z"
   id="path49" />
  <path
   fill="#af432c"
   opacity="1"
   stroke="none"
   d="m 40.26944,495.01474 c 2.66423,0.68604 2.75273,2.85358 2.21524,5.62464 -1.7518,-1.13275 -1.60176,-3.3172 -2.21524,-5.62464 z"
   id="path51" />
  <path
   fill="#354a5c"
   opacity="1"
   stroke="none"
   d="m 750.8833,287.45328 c -3.50464,-0.25952 -3.13611,-2.0516 -1.31787,-4.42608 0.64813,1.21606 1.0495,2.63879 1.31787,4.42608 z"
   id="path52" />
  <path
   fill="#431224"
   opacity="1"
   stroke="none"
   d="m 80.83374,583.2742 c -0.64394,0.41217 -1.37068,0.4795 -2.46187,0.55128 -0.86781,-0.75361 -1.37117,-1.51166 -1.99768,-2.59003 1.7184,-0.41205 3.25792,0.17096 4.45955,2.03875 z"
   id="path53" />
  <path
   fill="#405a69"
   opacity="1"
   stroke="none"
   d="m 104.11572,171.64069 c -0.48535,0.17584 -0.67587,0.16611 -1.15167,0.13474 0.38449,-1.00834 1.05426,-1.995 1.94965,-3.17231 0.88868,1.04056 0.55166,2.03223 -0.79798,3.03757 z"
   id="path56" />
  <path
   fill="#3c5564"
   opacity="1"
   stroke="none"
   d="m 699.61353,183.14066 c -1.00757,0.30646 -2.12348,0.51678 -3.23084,0.47903 -0.60797,-0.0207 -1.32086,-0.49697 -0.47815,-1.18792 0.24292,-0.19922 0.88385,0.0868 1.62,0.26596 0.48883,-0.0247 0.70001,-0.16513 1.23547,-0.10675 0.32422,0.19876 0.74884,0.35006 0.85352,0.54968 z"
   id="path59" />
  <path
   fill="#3a5161"
   opacity="1"
   stroke="none"
   d="m 721.67419,218.87769 c 1.01111,0.85022 1.69135,1.92685 2.44642,3.31766 0.0748,0.31418 -0.14124,0.49142 -0.2486,0.58081 -2.50629,1.17309 -2.82062,-0.46173 -2.9917,-2.57538 0.20618,-0.62784 0.3346,-0.86227 0.79388,-1.32309 z"
   id="path61" />
  <path
   fill="#46595a"
   opacity="1"
   stroke="none"
   d="m 28.414,357.02732 c 1.3891,0.65863 1.65891,1.61468 -0.013,2.72015 -0.24802,-0.755 -0.2073,-1.60443 0.013,-2.72015 z"
   id="path62" />
  <path
   fill="#3a5161"
   opacity="1"
   stroke="none"
   d="m 718.83759,213.63657 c 0.89917,0.74307 1.45092,1.61169 1.75067,3.02539 -1.87488,0.79694 -2.47357,-0.11099 -2.54572,-1.90301 0.19391,-0.57468 0.32074,-0.7858 0.79505,-1.12238 z"
   id="path63" />
  <path
   fill="#b64d36"
   opacity="1"
   stroke="none"
   d="m 43.82475,502.83091 c -0.0187,0.86572 -0.0503,1.71899 -0.13106,2.99884 -0.42787,-0.45893 -0.80665,-1.34442 -1.17593,-2.59748 0.20908,-0.56201 0.40866,-0.75653 0.93823,-0.69439 0.32996,0.25665 0.35588,0.28058 0.36876,0.29303 z"
   id="path64" />
  <path
   fill="#405a69"
   opacity="1"
   stroke="none"
   d="m 121.04413,149.44266 c -0.0322,0.33664 -0.2957,0.80457 -0.84769,1.34329 0.0131,-0.35681 0.3147,-0.78439 0.84769,-1.34329 z"
   id="path65" />
  <path
   fill="#af432c"
   opacity="1"
   stroke="none"
   d="m 43.72397,502.47281 c -0.14774,0.33295 -0.35745,0.34418 -0.88196,0.37366 -0.4763,-0.30597 -0.63785,-0.63019 -0.77881,-1.22571 0.74043,-0.38562 1.29491,-0.17437 1.66077,0.85205 z"
   id="path66" />
  <path
   fill="#3a5161"
   opacity="1"
   stroke="none"
   d="m 720.86578,216.77619 c 0.38153,0.4086 0.72327,0.85315 1.10212,1.58642 0.0372,0.2887 -0.0842,0.39219 -0.14685,0.44144 -1.04719,0.16538 -1.36335,-0.42346 -1.25928,-1.59003 0.18493,-0.32959 0.26422,-0.40188 0.30401,-0.43783 z"
   id="path67" />
  <path
   fill="#3a5161"
   opacity="1"
   stroke="none"
   d="m 717.94452,211.69877 c 0.40924,0.37747 0.75366,0.81668 1.16931,1.53408 0.0712,0.2782 -0.13525,0.44748 -0.2392,0.53128 -1.0968,0.21491 -1.41436,-0.37649 -1.31079,-1.54919 0.18659,-0.33044 0.3158,-0.45441 0.38068,-0.51617 z"
   id="path68" />
  <path
   fill="#46595a"
   opacity="1"
   stroke="none"
   d="m 26.78317,416.16861 c 0.62096,0.11402 0.78083,0.6424 0.32071,1.45069 -0.23752,-0.26416 -0.32194,-0.69562 -0.32071,-1.45069 z"
   id="path69" />
  <path
   fill="#405a69"
   opacity="1"
   stroke="none"
   d="m 114.2522,157.22312 c 0.10835,0.25198 -0.0668,0.63608 -0.55503,1.12036 -0.11818,-0.2626 0.0767,-0.62543 0.55503,-1.12036 z"
   id="path70" />
  <path
   fill="#46595a"
   opacity="1"
   stroke="none"
   d="m 699.00195,182.54685 c -0.13128,0.24908 -0.34491,0.25525 -0.87915,0.26398 -0.20459,-0.27286 -0.0354,-0.51023 0.36902,-0.83326 0.26404,0.0264 0.34601,0.1764 0.51013,0.56928 z"
   id="path71" />
  <path
   fill="#431421"
   opacity="1"
   stroke="none"
   d="m 717.17981,581.01432 c -0.12518,-0.32935 0.0578,-0.62512 0.48816,-1.00867 0.10498,0.28894 -0.0375,0.66559 -0.48816,1.00867 z"
   id="path72" />
  <path
   fill="#fbf7dc"
   opacity="1"
   stroke="none"
   d="m 446.20654,470.43363 c -7.25793,-9.29108 -11.92242,-20.21033 -17.4237,-30.65723 -9.82758,-18.66217 -19.41999,-37.44806 -29.1344,-56.16995 -0.67151,-1.29419 -1.53925,-2.48654 -2.97132,-4.7731 -16.14572,31.09772 -31.9324,61.50397 -47.71911,91.91022 -0.32614,-0.0476 -0.65229,-0.0951 -0.97843,-0.14271 0,-1.99945 0,-3.99896 -0.1037,-6.3933 -1.04818,-3.44373 -0.39004,-6.55994 -0.22836,-10.02936 0.33158,-5.73438 0.39884,-11.0835 0.34516,-16.88544 -1.01322,-1.64111 -0.6594,-3.02295 -0.65967,-4.32184 -0.0133,-63.61966 -0.0233,-127.23935 -0.0106,-190.85901 1.2e-4,-0.50101 0.0527,-0.9974 0.44858,-1.84185 7.00424,-0.37574 13.65109,-0.34357 20.29495,-0.46918 2.18847,-0.0414 3.41266,0.37487 4.38058,2.74438 4.38663,10.73834 12.46244,16.78601 24.19593,16.58078 12.4801,-0.21829 20.78387,-6.79223 25.15918,-18.80911 1.17535,-1.59589 2.52545,-2.27399 4.69787,-2.08814 6.39557,-0.16955 12.33808,-1.23736 18.67505,0.55188 0.68793,0.41837 0.93451,0.63257 1.42682,1.27295 1.0022,3.03696 0.62457,5.71476 0.70233,8.3639 0.41876,14.28164 -0.20868,28.55984 -0.1333,42.84652 0.24292,46.06034 -0.73761,92.12293 -0.29059,138.18521 0.11756,12.10602 -0.97149,24.24024 0.61359,36.33136 0.18512,1.4115 0.0196,3.00434 -1.28687,4.65302 z"
   id="path74" />
  <path
   fill="#fbf6dc"
   opacity="1"
   stroke="none"
   d="m 32.81473,433.07981 c 11.71747,7.44043 23.51726,15.1242 35.15294,23.04895 61.99313,42.22156 123.94236,84.50757 185.92555,126.74377 1.79306,1.2218 3.44418,2.53388 4.96655,4.52838 0.18625,1.56678 -0.58099,2.44385 -1.46512,3.22138 -8.85824,7.78985 -17.88928,15.37494 -27.41845,22.91754 -0.86475,0.21484 -1.37204,0.21912 -2.24994,0.0294 -2.39438,-1.11334 -3.58188,-2.95673 -4.8833,-4.66931 -19.2067,-25.27454 -38.97632,-50.10804 -58.70975,-74.96991 -1.85599,-2.33832 -3.73245,-4.66107 -6.17697,-7.23383 -0.58548,5.23609 -0.57489,10.09845 -0.0701,14.89203 1.51999,14.43372 0.45557,28.89185 0.6774,43.33539 0.0277,1.80188 -0.0943,3.71051 -2.27976,4.7738 z"
   id="path77" />
  <path
   fill="#fbf8df"
   opacity="1"
   stroke="none"
   d="m 447.4613,218.21628 c 0.30518,2.44657 2.10853,4.05658 2.02186,6.6482 -8.86432,0 -17.64881,-0.0633 -26.4311,0.0483 -1.98236,0.0252 -2.42791,-1.12513 -3.11529,-2.51679 -4.40131,-8.91077 -11.44281,-14.21429 -21.49341,-14.72504 -10.58106,-0.53775 -18.79864,3.95585 -24.0224,13.12973 -1.86639,3.27781 -3.97949,4.20215 -7.51492,4.08826 -7.62152,-0.24551 -15.25641,-0.0755 -23.66809,-0.0755 16.93093,-36.02582 34.65371,-71.02197 53.46884,-106.45029 7.02136,13.78168 13.72363,26.93714 20.69714,40.30555 2.49707,0.79376 3.2215,2.71313 4.09473,4.50045 7.79583,15.95569 15.84985,31.78247 23.80725,47.65747 1.12274,2.23981 2.19842,4.46289 2.15539,7.38962 z"
   id="path81" />
  <path
   fill="#2a2339"
   opacity="1"
   stroke="none"
   d="m 157.48938,467.66953 c 7.39331,10.01007 15.98764,18.59454 23.67072,27.94733 3.88928,4.73437 8.03482,9.25836 12.35552,14.04345 5.54383,8.18396 12.59556,14.69062 18.65934,22.02722 2.09103,2.52997 4.20599,5.04023 6.45758,7.86017 -6.04599,-0.86474 -10.73993,-4.9483 -15.7128,-8.27606 -8.79138,-5.88312 -16.89432,-12.83264 -25.86792,-18.39624 -11.34827,-7.03577 -21.98993,-14.99591 -32.87674,-22.65662 -5.71954,-4.02465 -12.05595,-7.32782 -18.0452,-10.96728 -6.11253,-3.71429 -11.84167,-8.41113 -17.51332,-12.94238 -1.80896,-1.44531 -4.0843,-2.00025 -5.6925,-4.05286 -0.38213,-5.10083 -2.51262,-9.40411 -4.45433,-13.51862 -7.49549,-15.88299 -13.56072,-32.3778 -21.40909,-48.13354 -4.88082,-9.79837 -10.29665,-19.50525 -13.23122,-30.41922 31.98117,31.65665 63.57405,63.61801 93.65996,97.48465 z"
   id="path82" />
  <path
   fill="#2a2339"
   opacity="1"
   stroke="none"
   d="m 639.89559,466.06895 c -7.39331,10.01007 -15.98764,18.59454 -23.67072,27.94733 -3.88928,4.73437 -8.03482,9.25836 -12.35552,14.04345 -5.54383,8.18396 -12.59556,14.69062 -18.65934,22.02722 -2.09103,2.52997 -4.20599,5.04023 -6.45758,7.86017 6.04599,-0.86474 10.73993,-4.9483 15.7128,-8.27606 8.79138,-5.88312 16.89432,-12.83264 25.86792,-18.39624 11.34827,-7.03577 21.98993,-14.99591 32.87674,-22.65662 5.71954,-4.02465 12.05595,-7.32782 18.0452,-10.96728 6.11253,-3.71429 11.84167,-8.41113 17.51332,-12.94238 1.80896,-1.44531 4.0843,-2.00025 5.6925,-4.05286 0.38213,-5.10083 2.51262,-9.40411 4.45433,-13.51862 7.49549,-15.88299 13.56072,-32.3778 21.40909,-48.13354 4.88082,-9.79837 10.29665,-19.50525 13.23122,-30.41922 -31.98117,31.65665 -63.57405,63.61801 -93.65996,97.48465 z"
   id="path82-4" />
  <path
   fill="#fbf7de"
   opacity="1"
   stroke="none"
   d="m 362.57306,618.26627 c 0.3201,-1.58221 0.4426,-2.73084 0.65878,-4.75793 6.06659,5.48504 11.79608,10.59112 17.43897,15.79113 4.40219,4.05658 8.79849,8.12964 12.9978,12.39197 2.22305,2.25635 3.58121,2.29834 5.97342,-0.0515 9.01361,-8.85321 18.29498,-17.43488 27.55487,-26.03345 0.63745,-0.59198 1.43671,-3.2063 3.02112,-0.21478 2.15515,6.29517 1.12774,12.44092 0.95697,18.44153 -0.21002,7.37701 0.13775,14.78399 -0.9231,22.557 -0.38806,3.61524 -2.69482,5.7967 -4.10711,8.38019 -8.53626,15.61505 -17.16803,31.17792 -25.79023,46.74585 -1.09893,1.98413 -2.32757,3.89642 -3.65966,6.11432 -10.66654,-19.1319 -21.07441,-37.81842 -31.51349,-56.48749 -0.81919,-1.46496 -1.66532,-2.87945 -1.85968,-4.98016 -0.57843,-12.7284 -1.20404,-25.08624 -0.74866,-37.89673 z"
   id="path84" />
  <path
   fill="#fcf7dc"
   opacity="1"
   stroke="none"
   d="m 460.63721,519.16971 c 0.17853,-12.66089 0.27179,-24.97741 0.4209,-37.75073 9.43609,-13.40149 19.72406,-25.65399 29.12439,-38.58472 2.2528,-3.09893 4.26391,-6.38665 6.82,-9.25085 1.43262,-1.60535 2.98078,-3.44476 5.66352,-1.09265 1.04968,3.77502 0.42449,7.27447 0.7268,11.18451 0.80683,6.64831 0.57502,12.85443 0.14563,19.52911 -0.20105,3.01123 0.46186,5.5108 0.33521,8.53656 -0.55878,2.9372 -0.56458,5.42413 -0.57489,7.92084 -0.0861,20.77368 0.22253,41.54828 -0.26075,62.77197 -0.34289,1.008 -0.68524,1.48517 -1.51995,2.0614 -4.01661,0.87976 -6.64807,-1.3421 -9.28901,-3.1651 -3.50762,-2.42126 -7.04962,-4.77148 -11.04742,-7.08783 -0.75738,-0.3645 -1.16437,-0.61157 -1.82812,-1.10077 -1.30017,-1.53375 -2.87329,-1.88354 -4.59888,-2.65997 -1.68109,-2.078 -3.56226,-3.28802 -6.04883,-4.23779 -0.8916,-0.5185 -1.43921,-0.94562 -2.40503,-1.3468 -2.2406,-1.78058 -5.14007,-2.38831 -5.66357,-5.72718 z"
   id="path86" />
  <path
   fill="#fcf8e1"
   opacity="1"
   stroke="none"
   d="m 293.25067,420.08329 c -5.48743,-5.88794 -3.73248,-10.7724 0.006,-16.83271 12.90576,-20.91839 25.11643,-42.26565 37.59738,-63.44632 0.33112,-0.56198 0.72547,-1.0867 1.31842,-1.96768 1.12256,1.88269 0.64106,3.68885 0.64417,5.3635 0.0736,39.59289 0.1076,79.18582 0.17264,118.77872 0.004,2.32592 0.20761,4.65142 0.32287,7.45153 -2.30118,1.39557 -3.43155,-0.4107 -4.46808,-1.74542 -11.79715,-15.19031 -23.6492,-30.3399 -35.01614,-45.85883 -0.2923,-0.39898 -0.42056,-0.89807 -0.57773,-1.74279 z"
   id="path88" />
  <path
   fill="#fbf8dd"
   opacity="1"
   stroke="none"
   d="m 463.54926,340.15891 c 3.74304,6.84152 7.51293,13.32333 11.61743,19.88605 0.33465,0.0809 0.71124,-0.17237 0.53607,-0.0281 1.7334,6.21619 5.69568,11.18384 8.79059,16.60602 6.01465,10.5375 12.30383,20.9183 18.75824,31.58447 0.78711,0.30872 1.2182,0.54053 1.7832,1.22553 2.25281,4.65972 -1.35516,7.18036 -3.25769,10.61596 -7.58954,8.02002 -13.33844,17.04462 -20.19025,25.19074 -5.34399,6.35345 -10.21924,13.07538 -14.78015,20.02527 -1.43255,2.18298 -2.65607,4.65716 -5.64105,5.61297 -0.36908,-1.518 -0.40759,-2.89422 -0.51587,-4.67834 -2.53973,-11.43097 -2.60248,-22.49451 -0.32434,-33.98633 0.35028,-6.41681 0.39685,-12.4397 0.3645,-18.92462 -0.34527,-0.88019 -0.44775,-1.33795 -0.24414,-2.15167 0.20807,-22.23969 0.24329,-44.15748 0.30512,-66.07514 0.006,-2.31421 0.16925,-4.62796 0.66436,-7.12427 1.50763,0.0545 1.94123,0.86612 2.13398,2.22144 z"
   id="path89" />
  <path
   fill="#fdf9dd"
   opacity="1"
   stroke="none"
   d="m 332.60004,484.38736 c 0.29351,10.44641 0.30084,20.60254 0.46795,30.75599 0.0401,2.4389 -0.83307,4.08966 -2.79806,5.39245 -12.20053,8.08875 -24.37924,16.21039 -36.59342,24.27832 -0.23367,0.15442 -0.81204,-0.21295 -1.42236,-0.68585 -0.73923,-11.31409 -0.37891,-22.28632 -0.41965,-33.25482 -0.0691,-18.62189 0.0519,-37.24457 -0.055,-55.86609 -0.0409,-7.1264 -0.29068,-14.25037 0.0637,-21.79883 1.70108,-5.40692 3.48621,-1.66803 4.54974,-0.2337 3.25934,4.39587 5.85999,9.25012 9.58902,13.34039 8.9842,9.85449 15.88123,21.29584 23.97709,31.82867 1.35272,1.75989 1.91208,3.84516 2.64099,6.24347 z"
   id="path90" />
  <path
   fill="#fbf8df"
   opacity="1"
   stroke="none"
   d="m 449.13159,579.70011 c -10.36017,6.95215 -19.3609,15.07055 -28.53857,22.9563 -7.31623,6.28631 -14.43933,12.79907 -21.58637,19.27948 -1.51318,1.37207 -2.43518,2.02203 -4.42145,0.27929 -16.70059,-14.65319 -33.0353,-29.72467 -51.48239,-44.59857 36.22904,0 71.07676,0 106.39927,0.0687 0.78369,0.81482 0.479,1.38305 -0.37049,2.01483 z"
   id="path91" />
  <path
   fill="#8c2a1f"
   opacity="1"
   stroke="none"
   d="m 260.18682,588.20762 86.33946,60.36284 c 9.13859,10.56862 9.7585,9.73933 51.22228,93.3592 1.11662,2.25189 1.03344,6.23903 -1.96681,8.31789 -4.04138,0.63495 -56.8806,-56.27101 -58.66935,-58.46431 -7.24671,-8.88574 -13.63684,-18.43036 -20.77076,-27.40778 -5.06439,-6.37305 -9.29864,-13.38275 -15.11978,-19.62872 -3.81429,-16.12452 -44.25598,-39.40989 -41.03504,-56.53912 z"
   id="path92" />
  <path
   fill="#f9f5dc"
   opacity="1"
   stroke="none"
   d="m 355.22229,562.99002 c -2.24078,-0.49188 -3.94113,-0.28289 -2.54831,-3.3095 3.82044,-8.30176 8.33469,-16.22852 12.48044,-24.35157 0.93338,-1.82892 2.24444,-2.08789 4.04129,-2.07617 18.26993,0.11926 36.54019,0.2085 54.81039,0.21857 1.99695,10e-4 3.39856,0.28589 4.41285,2.2763 4.06738,7.98163 8.24115,15.91022 12.4721,23.80664 1.7746,3.31196 -0.87713,2.51026 -2.73883,2.98359 -1.14245,0.96667 -2.18066,0.77588 -3.15918,0.77447 -26.44879,-0.039 -52.89779,0.10108 -79.77075,-0.32233 z"
   id="path93" />
  <path
   fill="#c96546"
   opacity="1"
   stroke="none"
   d="m 337.54703,690.86026 c 0,0 -82.16686,-52.43829 -115.16849,-73.11202 0,0 27.37278,-22.15646 37.23667,-30.44387 z"
   id="path94" />
  <path
   fill="#35172b"
   opacity="1"
   stroke="none"
   d="m 504.46008,410.07621 c -0.52282,-0.5445 -0.71405,-0.83271 -0.91742,-1.38465 0.43854,-3.37494 0.0641,-6.20581 -2.51507,-8.41674 -1.14526,-0.98169 -1.52167,-2.26725 -0.34918,-3.47651 1.25702,-1.29647 2.5238,-0.35833 3.58331,0.36203 2.84888,1.93686 3.10602,5.69608 5.73944,8.78666 0.96088,-7.04395 -1.2594,-11.88956 -6.55194,-15.22818 -1.98084,-1.24958 -3.24048,-2.64591 -3.69776,-4.9722 -0.33453,-1.70182 -0.27166,-4.25217 -2.36248,-4.49036 -2.17792,-0.24817 -2.2085,2.53687 -3.29621,3.89829 -0.30694,0.38421 -0.55694,0.81396 -1.13134,1.66458 -1.62824,-3.18348 -1.89844,-6.11359 -0.4206,-8.39221 1.94,-2.99112 0.51087,-4.42045 -1.72393,-5.50409 -2.73548,-1.32651 -3.65125,-3.46982 -4.28876,-6.23707 -1.67206,-7.25765 -2.42816,-15.27221 -7.56934,-20.77764 -2.88977,-3.09455 -3.81982,-5.91474 -5.31476,-9.50132 -2.60266,-6.24426 -5.43213,-12.87213 -10.16864,-18.15249 -0.98681,-1.10019 -1.77661,-2.53015 -2.98901,-3.2464 -3.71002,-2.19165 -3.40466,-4.80408 -0.93109,-8.01868 5.51379,8.67865 10.94305,17.42813 15.82971,26.47086 4.96741,9.19226 10.46967,18.04641 16.47107,27.28659 3.44269,3.26837 4.88434,7.11496 7.28638,10.74594 0.36578,0.43173 0.50457,0.61142 0.80505,1.09055 2.50671,5.15692 5.03833,9.90524 8.505,14.50768 0.30256,0.49308 0.40619,0.70145 0.61048,1.24415 0.48846,3.76928 3.45746,5.79907 4.90887,9.08294 0.66425,0.97226 1.00074,1.68915 1.43866,2.83209 2.19,3.62177 2.48145,7.23462 2.41883,10.89863 -0.0987,5.77648 0.35559,11.56195 -0.3302,17.79949 0.9226,23.94507 0.18151,47.43049 0.35766,70.91047 0.0139,1.84234 -0.0462,3.68561 -1.66595,5.57403 -0.34149,19.98023 -0.34888,39.58515 -0.38617,59.19007 -0.0104,5.45581 -0.36316,5.78424 -5.04761,2.91003 -4.33716,-2.66113 -8.36188,-5.82971 -13.51752,-7.72974 -1.54876,-0.53076 -3.14013,-0.0837 -4.16235,-1.7716 -0.22681,-0.25257 -0.25653,-0.22663 -0.24353,-0.23462 -8.49756,-3.80042 -15.95264,-9.39148 -23.69379,-14.41492 -9.88055,-6.41162 -19.38849,-13.3891 -30.0047,-18.96545 0.46643,1.13849 0.6709,2.09906 0.35828,3.46075 -1.51654,2.17023 -3.22137,3.74066 -4.23169,5.89502 -0.70502,1.50354 -1.76147,2.8855 -4.13641,2.26233 -2.34027,-6.21491 -0.1612,-11.94177 1.23577,-17.57672 0.83667,-3.3747 4.02149,-2.77204 7.0788,-1.69422 9.13135,2.57972 15.37989,9.13703 22.59491,14.09003 3.86518,2.65344 7.6803,5.20862 12.03253,6.95947 3.25959,1.31128 6.31891,2.86402 8.39777,5.9726 1.13672,1.69965 3.23785,2.25915 5.13483,2.91895 4.14349,1.44097 7.99261,3.53747 11.10345,6.56091 2.59717,2.52417 4.14899,3.01843 5.28253,-0.95478 0.13251,-0.46429 0.61279,-0.77166 1.40503,-1.16497 1.92963,-0.39344 2.97809,0.79339 4.29578,1.63665 0.20306,-3.55291 -0.0272,-6.63372 -0.88599,-9.74481 -1.34521,-4.87353 -1.43512,-9.71386 0.31903,-14.68353 1.62689,-4.60901 1.14093,-9.65662 0.50025,-14.35193 -0.90894,-6.66138 -0.76319,-13.21057 -0.38709,-19.85901 0.37506,-6.63183 -0.14355,-13.28448 -0.3233,-19.92889 -0.25153,-9.29639 1.13476,-18.55255 0.97711,-27.88745 -0.15717,-9.31128 -0.22968,-18.612 -1.16931,-27.88086 -0.31793,-3.13715 -0.59418,-6.39075 -4.25739,-8.36975 z"
   id="path96" />
  <path
   fill="#c86647"
   opacity="1"
   stroke="none"
   d="m 397.0589,474.37107 c -17.04239,12.05151 -33.74033,23.7536 -51.01569,35.28052 2.65854,-9.47821 8.1463,-17.65223 12.61386,-26.3335 11.93049,-23.18311 24.04603,-46.27106 36.09876,-69.39111 0.44717,-0.85773 1.00729,-1.65656 1.51602,-2.48481 1.6673,0.90009 1.23114,2.40815 1.57074,3.98523 0.89886,2.20197 1.05133,4.16352 1.04889,6.17408 -0.0185,15.42767 0.0189,30.85534 -0.0292,46.28302 -0.007,2.14856 0.1222,4.35241 -1.8034,6.48657 z"
   id="path97" />
  <path
   fill="#7a2620"
   opacity="1"
   stroke="none"
   d="m 397.06073,474.80521 c -0.25702,-17.87115 -0.17657,-35.65771 -0.0637,-53.44397 0.0104,-1.6474 0.22754,-3.29346 0.61725,-5.26135 2.07672,-0.47449 2.74384,0.62225 3.52093,2.10113 11.10767,21.13794 22.51984,42.11908 33.37616,63.38434 4.28101,8.38562 9.18891,16.50824 12.30573,25.8645 -9.15576,-3.69885 -16.89966,-10.01544 -25.16022,-15.48699 -8.23828,-5.45691 -16.17883,-11.36347 -24.59619,-17.15766 z"
   id="path98" />
  <path
   fill="#35172b"
   opacity="1"
   stroke="none"
   d="m 460.97168,247.53153 c -0.56433,7.99167 -0.83838,15.67831 -1.1369,23.82922 -2.94214,0.55124 -2.93042,-1.42489 -3.04889,-3.55755 -0.35071,-6.3158 0.58893,-12.54725 1.01825,-18.81244 0.0792,-1.15607 0.0242,-2.32242 0.008,-3.48371 -0.0317,-2.30352 0.36029,-5.31491 -3.00183,-5.12188 -2.97535,0.17077 -2.99415,3.02697 -2.99433,5.41323 -5.5e-4,6.47123 0.16541,12.94898 -0.0856,19.41053 -0.10669,2.74548 0.44025,6.10663 -3.51746,7.58828 -1.96197,-1.63653 -1.30127,-3.71411 -1.37671,-5.62411 -0.35003,-8.86285 0.63373,-17.75595 -0.93335,-26.9227 -0.33483,-0.32223 -0.22009,-0.3197 -0.23291,-0.26379 -0.74694,-1.04825 -1.94983,-1.83676 -2.29974,-3.64081 0.0798,-2.24301 -1.05218,-4.08093 0.17243,-6.22833 6.76666,-1.48389 8.90924,-7.42481 12.29254,-11.78864 1.9179,-2.47372 -0.0491,-5.21463 -2.65314,-6.48071 -3.30377,-1.60639 -2.63428,1.71896 -3.46503,3.18429 -0.5636,0.99405 -1.25976,1.913 -2.12762,3.20481 -8.39954,-15.91632 -16.56958,-32.17114 -24.73517,-48.42823 -1.70752,-3.39962 -3.39832,-6.8077 -5.138,-10.56957 1.45514,-1.86445 1.72882,-4.28885 3.82269,-5.3765 0.96497,-0.50125 1.58002,-1.71433 1.07666,-2.5271 -2.4237,-3.91419 -1.76697,-8.88535 -5.17981,-12.63042 -4.52063,-4.96077 -5.02252,-11.63379 -5.59283,-18.49725 5.46814,7.37973 9.05389,16.19485 13.36187,24.61214 6.6601,13.01312 13.00263,26.18881 19.6579,39.61593 0.6355,0.84278 1.2984,1.14301 1.78565,2.06369 0.39215,4.3848 3.44055,7.17163 5.03113,11.00998 1.08648,1.2696 2.21594,2.00821 3.30847,3.28824 0.37823,0.43704 0.51623,0.62564 0.82837,1.12216 4.24865,9.15894 8.51403,17.91629 13.18969,26.88196 0.27808,1.07782 0.47724,1.79523 0.85187,2.85983 0.17377,1.15137 0.0801,1.90851 -0.35797,2.98059 -0.35498,0.51114 -0.52991,0.68808 -1.01917,1.05604 -1.55676,0.68261 -2.87042,0.61733 -4.16052,0.621 -2.20617,0.006 -2.25415,1.34826 -1.84326,3.33426 0.59174,2.94156 0.0203,5.31768 -1.50537,7.87756 z"
   id="path99" />
  <path
   fill="#35172b"
   opacity="1"
   stroke="none"
   d="m 448.82605,580.17398 c 0.25928,-0.86639 0.53156,-1.38799 0.9773,-2.16479 0.81591,-1.00983 1.33868,-2.24499 2.12066,-2.43982 4.59363,-1.14435 3.82275,-4.33056 2.82935,-7.37451 -1.17438,-3.59827 -2.58863,-7.13324 -4.13898,-10.58795 -0.93127,-2.07514 -2.86383,-3.26166 -5.10944,-3.57788 -6.00573,-0.84571 -10.50775,-6.5373 -9.73834,-12.86249 -0.10718,-4.33087 0.87732,-8.02503 3.23584,-11.62988 3.07324,-0.34021 3.95197,1.81988 4.87366,3.664 2.85504,5.7124 5.8324,11.35254 9.26831,17.15851 0.24255,1.32769 0.74951,2.12268 1.54553,3.17358 3.10315,6.82886 6.83484,12.9624 9.28809,19.96179 2.83258,9.42023 2.93048,9.56006 -5.39337,15.38727 -4.86591,3.40649 -8.58124,8.26923 -14.40143,10.9115 -0.40991,-1.61865 -0.33704,-3.2345 0.75079,-4.68213 1.05951,-1.41003 1.09552,-3.06323 -0.58899,-3.79962 -2.12256,-0.92792 -1.2182,-1.7558 -0.35217,-2.83331 1.05243,-1.30939 2.26166,-2.24854 3.672,-0.63807 1.91247,2.18372 3.34155,2.18378 4.08551,-0.75555 0.47766,-1.88721 1.67181,-2.28351 3.3006,-2.26593 1.73382,0.0187 3.2528,-0.61804 4.64349,-1.58282 1.66302,-1.15369 2.32605,-2.76868 2.01874,-4.7616 -0.23084,-1.49738 -1.12995,-2.32184 -2.62903,-2.5658 -2.24085,-0.3645 -3.25794,0.96314 -4.2052,2.70905 -1.34699,2.48272 -2.67719,5.58716 -6.05292,1.55645 z"
   id="path104" />
  <path
   fill="#381328"
   opacity="1"
   stroke="none"
   d="m 504.92218,551.46671 c -0.10785,0.84906 -0.0431,1.35614 -0.11859,1.84149 -0.26557,1.70667 0.93109,4.14826 -1.1145,4.94544 -2.3194,0.9038 -3.74616,-1.11945 -5.18067,-2.84082 -2.80682,-3.36792 -6.79907,-5.08722 -10.71362,-6.72779 -3.32764,-1.39441 -6.67438,-2.08569 -8.48877,-6.0896 -1.24731,-2.75262 -5.27417,-3.18371 -7.96039,-4.13696 -7.39471,-2.62433 -12.60815,-8.27594 -18.89007,-12.36377 -3.11438,-2.02673 -5.40497,-5.14978 -9.54773,-5.53058 -1.53107,-0.14081 -2.53192,-1.46966 -3.03351,-3.38409 1.77344,-1.77814 3.76361,-2.70612 6.55237,-2.35883 3.90106,-1.74097 7.32989,-1.45618 11.04083,0.71228 1.38788,1.16394 1.33881,2.3722 1.34698,3.9242 -0.36645,3.14044 0.70319,4.67114 3.99628,4.52697 0.80103,-0.0375 1.25263,0.0245 2.00391,0.29468 2.38092,2.71485 4.39319,5.35871 8.15234,6.32923 1.07575,0.90155 1.76886,1.77118 3.20026,2.15612 1.66144,0.98767 3.19006,1.42371 5.01446,2.07654 5.84668,5.70435 12.34003,9.66156 19.74457,12.25098 1.8194,0.63617 3.47278,1.93188 3.99585,4.37451 z"
   id="path105" />
  <path
   fill="#2d171e"
   opacity="1"
   stroke="none"
   d="m 445.62073,240.38746 c 2.31708,1.00704 2.18457,3.38955 2.18738,5.70922 0.0104,8.59571 0.008,17.19138 0.0154,26.25574 0.0358,4.87607 -0.37696,9.31543 0.96924,14.04843 0.40222,1.15369 0.85968,1.88819 0.87438,2.73044 0.26661,15.20502 0.23462,30.40677 -0.59417,45.59744 -0.0276,0.50483 -0.39997,0.90061 -0.94721,1.71244 -0.30584,33.06817 -0.30633,65.75644 -0.30493,98.91354 0.57367,1.1546 0.73914,1.92255 0.23566,3.12128 0.12463,10.38092 -1.20819,20.4848 0.84118,30.45251 0.50837,2.4726 -1.26824,1.62085 -2.67608,1.87671 -0.41016,-76.65338 -0.47913,-153.30594 -0.60083,-230.41775 z"
   id="path106" />
  <path
   fill="#471320"
   opacity="1"
   stroke="none"
   d="m 373.22723,518.0048 c -0.35162,-4.76654 1.23548,-8.34192 4.83576,-11.80359 4.63315,-4.45478 9.06662,-9.1864 13.63775,-13.74616 3.12726,-3.11957 6.39869,-2.40716 8.93378,1.10767 4.75537,6.5932 9.58045,13.16571 15.53333,18.78827 1.44677,1.36651 1.99615,3.12268 1.36401,4.99627 -0.6286,1.86316 -2.41455,1.43378 -3.8454,1.45936 -5.12683,0.0917 -10.25482,0.1184 -15.72973,0.0359 -2.33533,-2.17914 -1.83497,-4.78833 -1.90503,-7.24267 -0.0807,-2.83106 0.10748,-5.67322 -0.0646,-8.49634 -0.12359,-2.02673 1.01471,-4.99915 -1.25818,-5.7912 -1.9411,-0.67645 -3.7532,1.72827 -5.36993,3.12579 -4.19232,3.62415 -7.58695,7.92505 -10.59217,12.57312 -1.3258,2.0506 -2.40869,4.47486 -5.53955,4.9936 z"
   id="path107" />
  <path
   fill="#9a3323"
   opacity="1"
   stroke="none"
   d="m 372.93823,518.20298 c 3.17969,-3.45734 5.02289,-7.62201 7.73526,-11.16132 4.17511,-5.44788 9.13288,-10.02325 15.81131,-13.63067 2.51258,8.11749 0.79828,16.33288 1.16608,24.84185 -0.0415,0.45587 -0.44794,0.50928 -0.64832,0.55213 -4.96481,2.09399 -9.96475,0.58716 -14.84051,0.98541 -2.13117,0.17401 -4.28973,0.051 -6.89783,-0.0225 -1.25375,-0.16931 -2.00671,-0.36939 -2.32599,-1.56494 z"
   id="path108" />
  <path
   fill="#e7b791"
   opacity="1"
   stroke="none"
   d="m 501.59497,431.99906 c -6.14911,4.36444 -9.44012,10.99084 -13.73974,16.7691 -7.28162,9.78559 -15.46607,18.88635 -22.09375,29.17371 -0.82392,1.27881 -2.63019,1.92462 -4.3144,2.94208 -0.34588,-1.9679 -0.3587,-4.0141 -0.29553,-6.49109 5.47205,-9.78717 11.88995,-18.43647 18.54694,-26.90833 4.93023,-6.27435 10.48095,-12.03149 15.47583,-18.25793 1.57653,-1.96533 3.22564,-3.94226 6.56518,-2.94483 0.70423,0.5636 0.98651,0.99628 1.27869,1.87342 0.17877,1.20166 0.12781,2.00366 -0.29724,3.15319 -0.39026,0.55024 -0.58966,0.73749 -1.12598,0.69068 z"
   id="path109" />
  <path
   fill="#35172b"
   opacity="1"
   stroke="none"
   d="m 377.9079,127.81543 c 5.20639,-12.60275 12.05563,-24.38401 18.89715,-37.303227 5.4441,9.812417 10.56531,18.982707 15.00843,28.914467 -6.1305,-0.6073 -10.22535,-5.57216 -15.70618,-7.94661 -2.06198,-0.89331 -0.24383,-2.62555 0.44989,-3.73421 1.33801,-2.13833 3.04291,-4.13363 1.26239,-6.77575 -0.42871,-0.63616 -1.08759,-1.397037 -1.75348,-1.528397 -1.01782,-0.20074 -1.07507,0.976907 -1.48312,1.656567 -4.33972,7.22867 -8.40326,14.52814 -9.49167,23.13294 -0.50699,4.00801 -3.7121,4.04602 -7.18341,3.58422 z"
   id="path111" />
  <path
   fill="#e7b791"
   opacity="1"
   stroke="none"
   d="m 332.95135,484.26407 c -12.59121,-18.00921 -27.4801,-34.65368 -39.96203,-53.43298 -2.10135,-1.92151 -1.63443,-4.18054 -1.33518,-6.66168 0.27158,-0.31067 0.43454,-0.0501 0.58371,-0.087 1.85596,-1.30737 2.47129,0.29273 3.18134,1.22492 10.45352,13.72467 21.70898,26.82629 31.7402,40.87951 2.22501,3.11713 4.54465,6.15863 5.43778,10.3523 0.30188,2.62768 0.38989,4.96899 0.35418,7.72491 z"
   id="path112" />
  <path
   fill="#aa8171"
   opacity="1"
   stroke="none"
   d="m 332.91406,476.45713 c -10.23617,-14.41016 -21.53854,-28.30591 -32.53198,-42.43164 -2.51672,-3.23383 -5.7149,-5.93891 -7.71002,-9.88336 -0.83063,-1.39954 -0.48352,-2.59266 0.35003,-4.08265 6.3267,5.32758 10.55191,12.53101 15.69385,18.99536 8.05496,10.12653 15.96286,20.37006 24.26712,30.70691 0.23404,2.20429 0.13401,4.26563 -0.069,6.69538 z"
   id="path113" />
  <path
   fill="#35172b"
   opacity="1"
   stroke="none"
   d="m 443.49518,599.89396 c 0.34772,5.29864 0.34027,10.6463 0.32049,16.46179 -1.68597,0.44513 -2.93328,0.94824 -2.99029,2.90051 -0.0701,2.40515 -1.89472,3.68866 -3.68408,4.10559 -3.78101,0.88104 -3.58576,3.02844 -2.7215,5.88696 0.61237,2.02521 1.15765,4.13282 1.27179,6.22876 0.10986,2.01703 -0.51111,3.96552 -3.44171,4.32032 -1.99695,-1.64344 -1.4259,-3.75428 -1.39661,-5.67481 0.10376,-6.80255 -0.53552,-13.62744 0.73316,-20.84741 4.74725,-4.07343 7.88476,-8.93689 11.90875,-13.38171 z"
   id="path114" />
  <path
   fill="#aa8171"
   opacity="1"
   stroke="none"
   d="m 501.74731,426.65451 c -1.92535,0.015 -3.06744,0.62812 -3.91784,1.75837 -9.65943,12.83752 -21.71735,23.7799 -29.77478,37.90399 -1.58045,2.77045 -4.09522,5.00799 -6.50318,7.5683 -0.479,-0.72541 -0.63397,-1.52771 -0.75268,-2.73957 11.13275,-15.10803 22.21142,-29.82 33.3435,-44.49145 1.80146,-2.37409 3.84003,-4.56824 6.08765,-6.93817 3.28723,1.59021 3.59955,3.91662 1.51733,6.93853 z"
   id="path115" />
  <path
   fill="#261316"
   opacity="1"
   stroke="none"
   d="m 291.63702,424.1583 c 0.41401,1.75995 0.53934,3.81946 0.83435,6.22076 0.10758,32.74793 0.0487,65.15406 -0.0201,97.56012 -0.0106,4.98358 -0.0665,9.96698 -0.24566,15.39533 -1.79868,-0.51776 -1.37485,-2.15033 -1.37552,-3.59015 -0.0176,-37.46112 -0.0184,-74.92224 0.007,-112.38336 6.7e-4,-0.96784 0.33303,-1.93543 0.79943,-3.2027 z"
   id="path116" />
  <path
   fill="#35172b"
   opacity="1"
   stroke="none"
   d="m 460.25122,410.67057 c 0.41223,0.59338 0.46466,1.04248 0.43848,1.82373 -7.10279,3.49347 -7.86304,2.99609 -7.87317,-4.78693 -0.006,-4.4837 0.0674,-8.96872 -0.0225,-13.45059 -0.0739,-3.68039 -0.0986,-7.16406 2.73883,-10.18463 1.94195,-2.0672 1.14099,-5.04926 1.30944,-7.6767 0.12128,-1.89127 -0.63623,-3.92834 0.91572,-5.9787 1.57647,1.39063 1.02307,3.12351 1.03045,4.60205 0.051,10.12952 -0.007,20.25965 0.0601,30.38895 0.0115,1.73145 -0.69971,3.70331 1.40271,5.26282 z"
   id="path117" />
  <path
   fill="#261316"
   opacity="1"
   stroke="none"
   d="m 347.80518,240.1843 c 0.32287,33.31799 0.32702,66.89664 0.3182,100.47531 -0.008,31.75311 -0.0302,63.50626 -0.14886,95.71988 -1.62787,-1.03656 -1.14179,-2.96655 -1.14246,-4.74518 -0.0237,-62.11282 -0.0262,-124.22561 -0.009,-186.33844 4.6e-4,-1.62927 -0.38733,-3.34796 0.98185,-5.11157 z"
   id="path118" />
  <path
   fill="#35172b"
   opacity="1"
   stroke="none"
   d="m 448.19965,336.74735 c -0.38092,-14.37772 -0.39093,-28.82916 -0.37458,-43.28061 0.002,-1.97726 -0.28265,-4.00137 0.81836,-6.26443 2.79273,-0.0618 3.25067,1.77981 3.16095,3.953 -0.36181,8.76794 0.0703,17.53732 -0.37256,26.32892 -0.24493,4.86218 -0.51861,9.80972 -0.61651,14.72235 -0.0369,1.85156 0.0468,3.74728 -2.61566,4.54077 z"
   id="path119" />
  <path
   fill="#381328"
   opacity="1"
   stroke="none"
   d="m 443.44006,229.50022 c 0.7071,2.0636 1.03882,3.8063 1.37177,5.93494 -2.01093,1.75341 -4.33728,1.95529 -6.59339,1.69125 -3.88989,-0.45526 -7.4226,0.45572 -11.12988,2.32351 -1.64807,0.28367 -3.02234,0.35181 -4.80731,0.47001 -0.97095,-2.45951 -3.18549,-3.52027 -4.84491,-5.08545 -0.91382,-0.86191 -2.59515,-1.67746 -1.93176,-3.11997 0.64605,-1.40491 2.3891,-1.50006 3.91296,-1.46811 2.4339,0.051 4.86841,0.0726 7.35297,-0.15994 5.40869,-1.9075 10.81775,-2.26236 16.66955,-0.58624 z"
   id="path120" />
  <path
   fill="#35172b"
   opacity="1"
   stroke="none"
   d="m 460.24017,431.84025 c 0.4361,10.99798 0.48322,22.01696 0.43512,33.49365 -3.84851,-2.6294 -4.01098,-6.54865 -3.63226,-11.12213 0.48267,-5.83088 -0.11133,-11.7497 -0.21948,-17.63105 -0.041,-2.22741 0.0266,-4.42511 3.41662,-4.74047 z"
   id="path121" />
  <path
   fill="#261316"
   opacity="1"
   stroke="none"
   d="m 355.10233,563.02176 c 23.91271,-0.37365 48.12973,-0.46087 72.34671,-0.5401 3.15197,-0.0103 6.30407,0.0212 9.91699,0.13013 0.27356,1.0011 -0.1181,1.45197 -1.20496,1.44769 -25.94946,-0.1026 -51.8992,-0.15478 -77.84872,-0.24798 -0.96918,-0.003 -1.9372,-0.3266 -3.21002,-0.78974 z"
   id="path123" />
  <path
   fill="#261316"
   opacity="1"
   stroke="none"
   d="m 431.58862,613.01694 c 0.22327,8.49884 0.23944,17.18146 0.27033,26.33209 -0.69208,6.01386 1.21228,11.73554 -1.47101,17.31397 -0.33783,-13.23419 -0.31598,-26.61023 -0.18475,-40.44733 0.46576,-1.31244 0.82208,-2.16369 1.38543,-3.19873 z"
   id="path124" />
  <path
   fill="#35172b"
   opacity="1"
   stroke="none"
   d="m 463.67505,340.16355 c -0.67639,-0.34845 -1.2002,-1.05197 -1.78949,-2.08197 -2.44666,-3.7114 -3.56098,-7.43076 -3.04645,-11.58356 0.10034,-0.80969 0.0116,-1.81125 1.04444,-2.00745 0.96716,-0.18371 1.42236,0.60791 1.76654,1.39704 0.53063,1.21667 0.73657,2.89764 1.66619,3.56326 4.67096,3.34415 3.81446,6.73843 0.35877,10.71268 z"
   id="path125" />
  <path
   fill="#35172b"
   opacity="1"
   stroke="none"
   d="m 443.42529,624.94327 c 0.84577,2.04175 -0.83593,5.13544 1.53491,6.23963 2.01703,0.93939 3.42634,-1.9654 5.12519,-3.1258 1.76752,-1.20721 3.42865,-2.57031 5.43646,-4.00458 -0.0835,3.49506 -8.48193,12.01307 -11.81116,12.20118 -0.97802,0.0552 -1.7998,-0.24866 -1.73132,-1.21778 0.23547,-3.33282 -1.43036,-6.88495 1.44592,-10.09265 z"
   id="path126" />
  <path
   fill="#381328"
   opacity="1"
   stroke="none"
   d="m 440.03308,529.48581 c -2.09491,3.55585 -0.53369,7.99866 -4.04602,11.02289 -1.98437,-0.90155 -3.96545,-1.93274 -5.02832,-4.39197 1.57129,-0.47216 2.63647,-1.3739 2.81464,-3.10742 0.28198,-2.74255 2.3153,-3.84662 4.74872,-5.04706 1.3562,-0.30053 1.65484,0.32123 1.51098,1.52356 z"
   id="path127" />
  <path
   fill="#261316"
   opacity="1"
   stroke="none"
   d="m 362.51572,618.15836 c 0.47427,12.02911 0.69363,24.38391 0.78201,37.1886 -0.90015,0.0156 -1.44397,-0.59607 -1.43072,-1.5177 0.16928,-11.78131 -0.63868,-23.57361 0.64871,-35.6709 z"
   id="path130" />
  <path
   fill="#35172b"
   opacity="1"
   stroke="none"
   d="m 457.76062,515.45505 c -3.3551,0.22949 -6.82886,0.84326 -10.54059,-0.56744 0.27368,-3.73755 3.42987,-3.60205 6.00421,-3.9588 2.88056,-0.39911 3.77399,1.91235 4.53638,4.52624 z"
   id="path132" />
  <path
   fill="#35172b"
   opacity="1"
   stroke="none"
   d="m 443.78754,229.42435 c -5.32569,0.3967 -10.67932,0.3967 -16.49982,0.39609 0.78162,-2.24738 2.414,-3.47962 5.12225,-2.33585 1.81861,0.76807 3.51886,-0.66491 5.23914,-0.52185 2.14215,0.17822 5.12414,-1.64325 6.13843,2.46161 z"
   id="path133" />
  <path
   fill="#471320"
   opacity="1"
   stroke="none"
   d="m 375.11319,520.02482 c 6.64056,-2.17182 13.73968,-0.77784 21.2225,-1.20203 0.18769,1.38513 -0.71307,1.99969 -2.03167,1.95709 -6.29215,-0.20282 -12.61115,0.65338 -19.19083,-0.75506 z"
   id="path134" />
  <path
   fill="#35172b"
   opacity="1"
   stroke="none"
   d="m 475.53906,360.10178 c -0.25604,-1.75738 -0.55279,-3.53384 -0.66742,-5.32199 -0.0887,-1.3844 0.19257,-2.74594 2.00257,-2.76169 1.62976,-0.0142 2.59729,1.26682 2.45544,2.53516 -0.23511,2.10315 0.16828,4.86001 -3.41785,5.50735 -0.38415,0.10056 -0.33502,0.017 -0.37274,0.0412 z"
   id="path138" />
  <path
   fill="#35172b"
   opacity="1"
   stroke="none"
   d="m 405.89844,127.71622 c -2.8797,-1.27412 -2.46015,-3.23036 -1.16583,-4.85626 1.13281,-1.42302 2.46051,-0.34676 3.17211,0.77437 1.24982,1.96917 1.46076,3.75413 -2.00628,4.08189 z"
   id="path142" />
  <path
   fill="#2d171e"
   opacity="1"
   stroke="none"
   d="m 465.01148,525.08756 c -0.64118,-0.26843 -1.08436,-0.27039 -1.85987,-0.2735 -3.13635,-0.0978 -4.51337,-1.35852 -3.59826,-4.643 0.36236,-0.6366 0.54437,-0.88361 0.97631,-1.21705 1.72199,1.85718 3.91712,2.91883 6.19648,4.38038 0.44537,0.64129 0.63012,1.03399 0.65106,1.80053 -0.19562,0.50275 -0.32892,0.67963 -0.78888,0.91736 -0.75574,-0.0836 -1.10645,-0.33661 -1.57684,-0.96472 z"
   id="path144" />
  <path
   fill="#35172b"
   opacity="1"
   stroke="none"
   d="m 459.547,519.8223 c 0.045,2.10706 1.11615,3.47797 3.05261,4.73291 -0.43945,2.9035 -1.84851,1.85242 -2.78772,0.65875 -1.15729,-1.47076 -4.46039,-2.4718 -1.32019,-5.31909 0.32373,-0.0762 0.81146,-0.0738 1.0553,-0.0726 z"
   id="path145" />
  <path
   fill="#35172b"
   opacity="1"
   stroke="none"
   d="m 454.58337,499.4307 c -2.63446,2.22729 -3.55896,0.17895 -4.4143,-1.5564 -0.38513,-0.78143 0.13379,-1.66461 1.1076,-1.81189 2.28412,-0.34521 3.38263,0.758 3.3067,3.36829 z"
   id="path146" />
  <path
   fill="#261316"
   opacity="1"
   stroke="none"
   d="m 347.63721,454.08829 c 0.29077,2.74707 0.30688,5.78943 0.229,9.27808 -1.73013,-2.63159 -1.21731,-5.80286 -0.229,-9.27808 z"
   id="path152" />
  <path
   fill="#35172b"
   opacity="1"
   stroke="none"
   d="m 412.81165,145.08081 c -0.26294,-1.35998 -1.61261,-2.48945 0.0237,-3.62356 1.4823,1.05762 0.91681,2.49695 0.7865,3.83127 -0.01,0.10223 -0.18524,0.26715 -0.27893,0.26394 -0.14197,-0.005 -0.27973,-0.13171 -0.53131,-0.47165 z"
   id="path154" />
  <path
   fill="#35172b"
   opacity="1"
   stroke="none"
   d="m 448.13623,438.74894 c -0.3147,-0.67908 -0.31592,-1.42786 -0.31531,-2.55103 1.93525,0.19898 2.73639,1.02094 0.31531,2.55103 z"
   id="path156" />
  <path
   fill="#30394d"
   opacity="1"
   stroke="none"
   d="m 29.85083,413.14798 c 0.80113,-0.22137 1.52652,0.0864 1.92609,1.28943 -0.82157,0.24964 -1.52234,-0.09 -1.92609,-1.28943 z"
   id="path160" />
  <path
   fill="#35172b"
   opacity="1"
   stroke="none"
   d="m 409.30896,133.86417 c -0.4317,0.6041 -0.92609,0.56699 -0.91577,-0.0165 0.0104,-0.5829 0.50604,-0.60193 0.91577,0.0165 z"
   id="path161" />
  <path
   fill="#35172b"
   opacity="1"
   stroke="none"
   d="m 494.32776,388.34189 c -0.0288,0.013 0.0287,-0.0131 0,0 z"
   id="path164" />
  <path
   fill="#35172b"
   opacity="1"
   stroke="none"
   d="m 399.32745,117.34186 c -0.0287,0.013 0.0287,-0.0129 0,0 z"
   id="path166" />
  <path
   fill="#c86647"
   opacity="1"
   stroke="none"
   d="m 345.82391,509.83963 c -0.0774,0.28241 -0.27294,0.44245 -0.4685,0.60254 -0.063,-0.229 -0.12598,-0.45807 -0.0393,-0.82641 0.14969,-0.13935 0.38968,0.10156 0.50778,0.22387 z"
   id="path167" />
  <path
   fill="#7a2620"
   opacity="1"
   stroke="none"
   d="m 446.8352,507.80796 c 0.0166,-0.0139 0.39741,0.26147 0.39741,0.26147 0,0 -0.33271,0.008 -0.38727,-0.10339 -0.0545,-0.11109 -0.0267,-0.14417 -0.0101,-0.15808 z"
   id="path168" />
  <path
   fill="#f5f5dc"
   opacity="1"
   stroke="none"
   d="m 532.92426,141.56746 c 1.2268,8.40166 -1.2345,13.3727 -7.10505,15.07686 -8.18206,2.37518 -14.58776,-2.74014 -15.08538,-12.40927 1.49762,-5.62372 4.62426,-9.15865 10.3034,-9.69501 5.42877,-0.51274 9.17078,2.09091 11.88703,7.02742 z"
   id="path170" />
  <path
   fill="#f3f4dd"
   opacity="1"
   stroke="none"
   d="m 637.20117,171.00058 c 1.12744,0.20169 1.94959,0.37815 3.08863,0.53193 3.76025,1.18618 6.62243,3.03598 7.97802,7.01895 0.58313,7.48022 -1.81305,11.47247 -7.40497,12.91519 -4.58557,1.18304 -9.36376,-1.19946 -11.38647,-5.67752 -2.45123,-5.42661 -0.59107,-9.93457 6.04889,-14.02347 0.66956,-0.37097 1.01825,-0.58356 1.6759,-0.76508 z"
   id="path171" />
  <path
   fill="#f3f4dd"
   opacity="1"
   stroke="none"
   d="m 581.70386,139.38703 c -5.80475,0.95564 -10.47968,-0.11278 -13.00366,-6.22128 0.0569,-7.73241 2.24035,-11.33834 7.07525,-12.23755 5.10889,-0.9502 9.47193,1.34636 11.24829,5.92064 2.03369,5.23709 0.52558,8.9058 -5.31988,12.53819 z"
   id="path173" />
  <path
   fill="#f3f4dd"
   opacity="1"
   stroke="none"
   d="m 620.22595,163.16468 c -8.9862,3.44317 -14.40985,0.31579 -14.94726,-8.97931 3.74872,-8.8056 10.55322,-10.14395 17.14233,-3.51209 3.49725,4.60996 2.95606,8.73444 -1.70953,12.39371 -0.40668,0.0859 -0.46509,0.0764 -0.48554,0.0977 z"
   id="path174" />
  <path
   fill="#f3f4dd"
   opacity="1"
   stroke="none"
   d="m 531.86816,107.75155 c 0.28003,-4.41102 2.13007,-7.44881 6.02411,-8.648807 3.12799,-0.96394 6.27515,-0.69697 8.70844,1.994067 2.68225,2.96637 3.62787,6.34605 1.96069,10.08767 -1.71905,3.85791 -5.02936,5.14347 -9.00152,4.70731 -4.55994,-0.50073 -7.07636,-3.22469 -7.69172,-8.14024 z"
   id="path175" />
  <path
   fill="#f3f4dd"
   opacity="1"
   stroke="none"
   d="m 260.06302,102.54807 c 1.90524,3.98033 2.38596,7.71869 -0.74625,10.83346 -3.00198,2.98522 -6.70038,3.21204 -10.90826,1.48606 -3.81406,-3.4634 -5.08103,-7.31253 -2.79068,-11.77216 1.82718,-3.557647 4.98294,-4.632277 8.80633,-4.128517 2.29547,0.30243 3.91858,1.673377 5.63886,3.581157 z"
   id="path176" />
  <path
   fill="#eef2dd"
   opacity="1"
   stroke="none"
   d="m 461.47845,70.415933 c 3.09791,-1.45705 5.81293,-1.40889 8.30964,0.47645 3.04669,2.30062 3.82885,6.72156 1.82617,9.86206 -1.96314,3.07848 -6.49262,4.19838 -9.72321,2.404 -3.43762,-1.90935 -4.83014,-6.3944 -2.94738,-9.90775 0.52996,-0.98892 1.47753,-1.75407 2.53478,-2.83476 z"
   id="path177" />
  <path
   fill="#eef2dd"
   opacity="1"
   stroke="none"
   d="m 295.03491,83.959693 c 4.13751,4.54477 4.72843,7.83566 1.88623,10.90006 -2.14059,2.30793 -4.79568,3.56511 -7.99594,2.25003 -3.66754,-1.50713 -5.21136,-4.33884 -4.83581,-8.63657 -0.0212,-0.37772 -0.0361,-0.41991 -0.0564,-0.42909 1.99017,-6.38793 4.37289,-7.5849 10.56558,-4.87212 0.0117,0.44907 0.24811,0.75105 0.43637,0.78769 z"
   id="path178" />
  <path
   fill="#f3f4dd"
   opacity="1"
   stroke="none"
   d="m 508.6618,87.028133 c 1.59986,4.69735 0.12415,7.90025 -3.98217,9.61113 -3.53522,1.47294 -6.65302,0.39433 -8.34546,-3.09705 -1.70233,-3.51183 -0.93561,-6.7973 2.16522,-9.3085 3.23315,-2.61835 6.58099,-1.76387 10.16241,2.79442 z"
   id="path180" />
  <path
   fill="#eef2dd"
   opacity="1"
   stroke="none"
   d="m 360.32779,73.308753 c -1.54697,-3.39449 -1.11408,-6.1365 1.52872,-8.34653 2.01739,-1.68701 4.32049,-1.7164 6.50226,-0.49879 2.33294,1.30202 3.56918,3.39931 3.42294,6.1725 -0.13593,2.57764 -1.40479,4.39116 -3.80679,5.27086 -3.01493,1.10417 -5.52811,0.30176 -7.64713,-2.59804 z"
   id="path182" />
  <path
   fill="#eef2dd"
   opacity="1"
   stroke="none"
   d="m 424.47717,65.516513 c 3.85871,-2.91729 6.97241,-1.87805 9.35053,1.30835 1.93683,2.59513 1.38818,5.48897 -0.81031,7.72335 -2.18615,2.22191 -5.09124,2.95329 -7.6502,0.90416 -3.31507,-2.6547 -3.80182,-6.06783 -0.89002,-9.93586 z"
   id="path183" />
  <path
   fill="#eef2dd"
   opacity="1"
   stroke="none"
   d="m 322.03339,121.13367 c 2.28326,3.02158 3.70898,6.34006 0.10159,9.0045 -2.87625,2.12439 -5.87869,1.40032 -8.15097,-2.06688 -0.23914,-0.69885 -0.25415,-1.14882 -0.36182,-1.92523 -0.33133,-0.76417 -0.3977,-1.22662 -0.0946,-2.01877 1.22061,-1.63652 2.0433,-3.17576 4.03018,-3.96368 0.89062,-0.95993 1.67694,-1.01033 2.74408,-0.28644 0.19922,0.37529 0.31872,0.25778 0.25037,0.20931 0.32656,-0.058 0.65408,0.0902 1.10537,0.59204 0.18234,0.21666 0.25165,0.45517 0.37583,0.45515 z"
   id="path184" />
  <path
   fill="#e7ecdf"
   opacity="1"
   stroke="none"
   d="m 477.69153,127.38733 c -1.54798,2.39907 -3.39575,3.81542 -6.49927,3.51169 -0.8761,-0.41733 -1.39856,-0.83206 -1.87213,-1.29677 -2.039,-2.00082 -2.41089,-4.44098 -1.09241,-6.82054 1.10791,-1.9996 3.06488,-3.07118 5.49475,-2.33221 3.23322,0.98329 4.36414,3.31875 3.96906,6.93783 z"
   id="path185" />
  <path
   fill="#d5e0e0"
   opacity="1"
   stroke="none"
   d="m 470.45123,162.95157 c 1.26209,2.24689 1.70594,4.54148 -1.26178,5.25016 -2.69079,0.64251 -3.40692,-1.31348 -3.29406,-4.00873 1.20416,-1.66782 2.61462,-2.02545 4.55584,-1.24143 z"
   id="path186" />
  <path
   fill="#d5e0e0"
   opacity="1"
   stroke="none"
   d="m 397.91638,65.777073 c 1.78327,2.16803 2.1051,4.22916 -0.53265,5.36997 -2.07013,0.89529 -3.05603,-0.86875 -3.34006,-2.5414 -0.46963,-2.76578 1.10996,-3.49168 3.87271,-2.82857 z"
   id="path189" />
  <path
   fill="#f5f5dc"
   opacity="1"
   stroke="none"
   d="m 193.99304,355.11982 c 6.36054,-12.20899 17.72788,-13.71152 26.67288,-3.45832 0.54554,1.24475 0.88398,2.35645 1.11701,3.48975 1.56756,7.62283 -0.27036,12.89264 -5.59439,16.12015 -5.93436,3.59759 -11.65647,2.96026 -18.24762,-2.15384 -0.30661,-0.15567 -0.34082,-0.24231 -0.38684,-0.24942 -2.84195,-1.18424 -3.17899,-1.71372 -3.42572,-5.86261 0.0626,-0.7894 0.0148,-1.20569 -0.18113,-1.90363 -1.60021,-2.06598 -0.86913,-3.95541 0.0458,-5.98208 z"
   id="path197" />
  <path
   fill="#f3f4dd"
   opacity="1"
   stroke="none"
   d="m 188.98834,433.51596 c 1.25876,8.9737 -2.71734,15.06873 -9.97238,16.24787 -8.96948,1.45795 -16.39368,-7.83002 -13.15939,-17.50501 7.74585,-10.04602 17.25692,-9.4732 23.13177,1.25714 z"
   id="path198" />
  <path
   fill="#f5f5dc"
   opacity="1"
   stroke="none"
   d="m 64.985,334.25864 c 4.10733,-6.55685 9.22136,-8.59628 15.02474,-6.42276 5.47827,2.05179 7.54995,6.80695 6.30473,14.77445 0.40784,2.86566 -1.19417,3.93875 -3.4531,4.85601 -0.37182,0.046 -0.20083,0.1109 -0.26869,0.0496 -0.0863,0.80234 -0.67709,0.96378 -1.68046,0.89191 -0.71831,6.1e-4 -1.12609,0.10932 -1.81612,0.36517 -11.14188,0.15836 -14.84309,-3.64379 -14.1111,-14.5144 z"
   id="path199" />
  <path
   fill="#eef2dd"
   opacity="1"
   stroke="none"
   d="m 226.43543,416.14219 c -3.21491,-2.72699 -4.67273,-5.68183 -2.7306,-9.41986 1.54978,-2.98292 4.21631,-4.22052 7.45954,-3.69037 3.22983,0.52801 5.35104,2.50976 5.97998,5.82757 1.05621,5.57215 -3.90616,9.13446 -10.70892,7.28266 z"
   id="path200" />
  <path
   fill="#e7ecdf"
   opacity="1"
   stroke="none"
   d="m 109.7388,364.09919 c 1.19713,1.35232 2.18733,2.21713 3.40201,3.27166 0.99774,3.3338 0.57304,6.09223 -2.51381,7.7974 -1.84819,1.0209 -3.74646,1.06836 -5.44672,-0.43622 -2.5731,-2.27701 -2.98153,-4.91904 -1.19807,-8.25562 0.10243,-0.35495 0.0752,-0.37509 0.0879,-0.38415 0.13431,-0.9054 0.49858,-1.61011 1.72661,-1.67246 0.26595,0.17029 0.37442,0.16431 0.42108,0.13651 0.52008,-2.52777 2.20853,-0.69757 3.52103,-0.45712 z"
   id="path201" />
  <path
   fill="#e7ecdf"
   opacity="1"
   stroke="none"
   d="m 139.36902,395.52298 c 2.21948,2.73411 2.10937,5.1576 -0.32205,7.15314 -2.01128,1.6507 -4.07427,0.99567 -5.68406,-0.75891 -1.66535,-1.81506 -1.60194,-3.95956 -0.22459,-5.88257 1.62637,-2.27057 3.7063,-2.5004 6.2307,-0.51166 z"
   id="path202" />
  <path
   fill="#d5e0e0"
   opacity="1"
   stroke="none"
   d="m 257.86069,355.14045 c -0.11924,-2.60071 -0.56403,-5.69693 2.98904,-5.07169 3.39621,0.59766 1.97241,3.52206 1.71643,6.04269 -1.63122,0.78492 -3.30801,1.13193 -4.70547,-0.971 z"
   id="path203" />
  <path
   fill="#d5e0e0"
   opacity="1"
   stroke="none"
   d="m 168.24719,371.15104 c 0.26898,0.25772 0.17127,0.50204 0.27478,0.58325 -0.24899,2.03976 -0.52157,4.3262 -3.29553,3.70007 -1.75839,-0.39688 -1.86667,-2.28171 -1.41147,-3.68195 0.78955,-2.42858 2.45059,-2.1152 4.43222,-0.60137 z"
   id="path204" />
  <path
   fill="#d5e0e0"
   opacity="1"
   stroke="none"
   d="m 258.24896,451.1088 c 0.69422,2.09204 0.81452,4.15662 -1.52734,4.83728 -1.62921,0.47351 -2.6272,-0.71381 -2.9762,-2.73657 0.77512,-2.31159 2.18247,-2.90564 4.50354,-2.10071 z"
   id="path205" />
  <path
   fill="#f9f8dc"
   opacity="1"
   stroke="none"
   d="m 191.3905,251.53031 c 1.50598,0.55072 2.60846,0.93719 4.06214,1.3378 1.61123,0.34027 2.85901,0.69473 4.09228,1.80111 0.20001,0.25595 0.24014,0.1597 0.20368,0.19696 11.21118,4.43705 14.6278,22.38071 6.16955,32.61133 -10.34854,9.87198 -22.23767,11.54376 -32.28811,4.79859 -4.48099,-3.00733 -7.01218,-7.40879 -9.35581,-12.3591 -1.51144,-4.57807 -2.43079,-8.98883 -0.45065,-13.46332 0.65463,-1.47934 0.89471,-3.17984 2.87564,-4.24399 0.33441,-0.22781 0.2233,-0.3002 0.255,-0.24194 0.9538,-2.29151 2.12812,-4.44065 4.85544,-5.72211 0.31796,-0.11447 0.22525,-0.16476 0.23307,-0.11261 0.0403,-0.44485 0.2662,-0.83636 0.95767,-0.94525 0.30102,0.19299 0.36374,0.17926 0.39477,0.17114 4.8523,-5.8858 11.2598,-4.77298 17.99533,-3.82861 z"
   id="path208" />
  <path
   fill="#f9f8dc"
   opacity="1"
   stroke="none"
   d="m 263.43543,280.3545 c 0.77172,0.32867 1.14511,0.45398 1.81555,0.57095 4.24517,0.78809 7.4118,2.60471 9.00628,6.93774 0.0918,0.34446 0.30854,-0.0902 0.18964,0.12244 3.62057,4.95361 3.1131,9.96802 0.52225,15.41074 -0.31708,0.3146 -0.20353,0.36398 -0.24387,0.31704 -0.69336,1.17423 -0.9013,2.61057 -2.1694,3.55576 -0.32245,-0.13452 -0.41761,-0.0625 -0.44284,-0.008 0.48825,1.14685 -0.3855,1.2948 -1.34863,1.5303 -0.28626,-0.0464 -0.70276,0.0842 -0.82148,0.2673 -0.2344,1.09556 -0.94662,1.22205 -2.00061,1.45426 -0.34353,0.10345 -0.25622,0.14236 -0.26434,0.0953 -1.04035,1.36124 -2.63519,1.41092 -4.49841,1.5044 -1.75153,-0.17508 -3.1496,-0.18848 -4.96485,-0.15564 -3.22131,0.64377 -5.51684,-0.72302 -7.83893,-2.27869 0.0271,-0.39618 -0.0354,-0.45334 -0.0718,-0.47497 -6.45386,-3.50708 -7.1258,-9.48291 -6.61081,-16.13367 0.28601,-0.28442 0.42465,-0.43051 0.36853,-0.5141 0.19302,-1.89468 0.60278,-3.65723 1.90057,-5.28509 0.24057,-0.16745 0.091,-0.31922 0.16983,-0.24494 0.96057,-2.37054 3.03799,-3.63418 5.51224,-4.95477 0.30075,-0.15213 0.23221,-0.1901 0.2276,-0.15119 3.46292,-2.14428 7.2359,-2.43914 11.56348,-1.56472 z"
   id="path209" />
  <path
   fill="#f5f5dc"
   opacity="1"
   stroke="none"
   d="m 149.40601,319.87207 c 3.10965,-0.44174 5.79913,-0.92575 8.94769,-0.0677 5.27927,1.16525 8.22656,5.20221 8.44723,10.97738 0.18503,4.8432 -3.05157,9.90216 -7.2626,11.29822 -2.89481,0.95972 -5.9032,1.08362 -8.83536,0.49369 -5.79178,-1.1652 -8.15573,-4.37238 -8.84875,-11.48249 -0.4971,-5.09952 1.72339,-8.57599 7.55179,-11.21915 z"
   id="path210" />
  <path
   fill="#f3f4dd"
   opacity="1"
   stroke="none"
   d="m 91.9602,306.58319 c -0.50547,0.44855 -0.63865,0.71616 -0.62104,1.24625 -0.0856,2.92874 -0.95584,5.08664 -4.38486,5.67142 -0.36002,0.10843 -0.19318,0.2381 -0.2612,0.15726 -5.30795,4.15893 -14.20041,1.32006 -15.82855,-5.20279 -0.76229,-3.05393 -1.14609,-6.1904 0.35194,-9.60984 0.15831,-0.63226 0.21871,-0.88379 0.42499,-1.49133 0.5385,-1.01144 1.07361,-1.53097 1.95964,-2.21142 0.65575,-0.51377 1.05432,-0.7685 1.77742,-1.15906 1.14497,-0.53421 2.06665,-0.67044 3.21652,-1.19528 0.78046,-0.21628 1.2385,-0.28669 2.05239,-0.32535 2.45951,0.24746 4.42289,0.96429 6.64546,2.02283 0.51144,0.28942 0.70492,0.4248 1.15214,0.80725 1.29454,2.33926 3.44944,3.70333 4.11188,6.42807 -0.0309,0.82257 -0.11758,1.29104 -0.22557,2.11706 -0.02,1.07977 -0.01,1.80139 -0.37116,2.74493 z"
   id="path211" />
  <path
   fill="#d5e0e0"
   opacity="1"
   stroke="none"
   d="m 310.54092,311.49518 c 0.4498,2.01956 0.76761,3.74021 -1.4461,4.35599 -1.13095,0.31461 -2.37757,0.40466 -3.07559,-0.78949 -0.79975,-1.36816 -0.91751,-2.98679 0.13171,-4.17725 1.33402,-1.51348 2.89191,-1.22171 4.38998,0.61075 z"
   id="path220" />
  <path
   fill="#d5e0e0"
   opacity="1"
   stroke="none"
   d="m 138.75943,283.18949 c 2.09961,-0.70813 3.93622,-1.38703 5.16391,1.26678 -0.37997,2.7045 -1.67908,3.78278 -4.44678,2.87665 -0.32956,-0.50589 -0.41598,-0.8154 -0.71756,-1.30518 -0.67736,-0.95391 -0.7082,-1.74554 4.3e-4,-2.83825 z"
   id="path221" />
  <path
   fill="#344759"
   opacity="1"
   stroke="none"
   d="m 265.07291,357.77515 c 0.025,-0.41928 0.30755,-0.88446 0.59011,-1.34964 0.18598,0.15711 0.37192,0.31421 0.55787,0.47131 -0.29682,0.27747 -0.59363,0.55494 -1.14798,0.87833 z"
   id="path235" />
  <path
   fill="#344759"
   opacity="1"
   stroke="none"
   d="m 34.29431,343.33402 c -0.0134,-0.0293 0.0134,0.0293 0,0 z"
   id="path238" />
  <path
   fill="#e7ecdf"
   opacity="1"
   stroke="none"
   d="m 97.21667,264.81861 c 0.79522,2.22394 1.36272,4.35904 -0.10656,6.297 -1.76924,2.33361 -4.34281,3.35082 -7.01287,2.48562 -2.59758,-0.84177 -3.41567,-3.37253 -3.22988,-5.99057 0.21902,-3.08673 2.08038,-4.74142 5.10641,-5.00449 0.96036,-0.0834 1.95084,0.18 3.3412,0.38755 0.83573,0.63348 1.25777,1.16412 1.9017,1.82489 z"
   id="path242" />
  <path
   fill="#e7ecdf"
   opacity="1"
   stroke="none"
   d="m 114.59328,239.29404 c -3.08242,4.21149 -6.19205,5.10251 -8.76602,2.64844 -2.60471,-2.48337 -2.60833,-5.28464 -0.21924,-7.93503 1.43835,-1.59564 3.29309,-2.21493 5.42151,-1.34311 2.81219,1.15195 4.17816,3.16144 3.56375,6.6297 z"
   id="path243" />
  <path
   fill="#e7ecdf"
   opacity="1"
   stroke="none"
   d="m 291.04089,203.17908 c 0.22413,-1.1163 0.41492,-1.86709 0.63355,-3.00552 3.31378,-5.00086 4.59488,-5.28192 10.12976,-2.26801 0.43545,0.49661 0.57757,0.72156 0.81897,1.33142 0.1513,0.91083 0.18338,1.43787 0.21774,2.3606 0.3169,3.21146 -1.12011,4.87271 -3.97696,5.96905 -1.51303,0.1496 -2.65661,0.16306 -4.14398,0.1662 -0.78824,-0.0586 -1.17807,-0.2276 -1.67972,-0.81314 -0.17477,-0.27743 -0.11874,-0.22815 -0.10531,-0.26318 -0.26126,-0.51236 -0.53592,-0.98966 -1.01981,-1.65146 -0.52264,-0.56567 -0.75531,-0.99106 -0.87424,-1.82596 z"
   id="path244" />
  <path
   fill="#e7ecdf"
   opacity="1"
   stroke="none"
   d="m 225.73505,204.52146 c 3.98632,-2.66535 7.17022,-3.09024 9.39831,1.99649 -1.32968,6.37674 -2.97149,7.18777 -8.68667,4.34897 -0.43741,-0.69391 -0.58304,-1.21445 -0.87726,-1.96301 -2.43314,-1.51954 -1.24664,-2.85764 0.16562,-4.38245 z"
   id="path245" />
  <path
   fill="#d5e0e0"
   opacity="1"
   stroke="none"
   d="m 177.12054,207.19321 c 0.0477,-0.38006 0.0783,-0.42346 0.0949,-0.44372 1.12152,-1.64127 2.55411,-2.1251 4.20621,-0.95765 1.34277,0.9488 1.73282,2.3862 1.24802,3.9527 -0.44486,1.43753 -1.57324,2.26486 -3.00766,1.95654 -2.11636,-0.45486 -2.75354,-2.10348 -2.54148,-4.50787 z"
   id="path250" />
  <path
   fill="#3e5867"
   opacity="1"
   stroke="none"
   d="m 270.62677,225.38895 c 0.0484,-0.15048 0.15457,-0.19983 0.26074,-0.24914 -0.0677,0.11676 -0.13534,0.23352 -0.26074,0.24914 z"
   id="path257" />
  <path
   fill="#f3f4dd"
   opacity="1"
   stroke="none"
   d="m 172.08368,161.93534 c -0.35584,-0.88623 -0.54611,-1.38581 -0.9755,-2.01599 -1.38876,-1.1391 -2.01107,-2.44416 -2.4136,-4.26664 -0.0605,-1.36145 0.21512,-2.29141 0.72763,-3.53744 0.50549,-1.23096 0.96826,-2.08713 1.4324,-3.35263 0.32322,-0.54038 0.47361,-0.74545 0.90247,-1.21488 3.56525,-2.0704 7.0372,-2.52386 11.05322,-1.57476 0.84421,0.30716 1.31272,0.51806 2.11182,0.93304 1.39877,1.70435 3.1322,2.50354 4.53943,4.23462 0.34332,0.58618 0.45242,0.83878 0.64319,1.4989 0.0538,2.60343 0.80801,4.94119 -1.49274,6.88175 -0.65662,0.24887 -0.80313,0.47717 -0.8522,0.97451 -3.47455,6.76416 -11.21177,7.57132 -15.67612,1.43952 z"
   id="path260" />
  <path
   fill="#eef2dd"
   opacity="1"
   stroke="none"
   d="m 134.93625,215.732 c -4.34984,0.90015 -8.33693,0.61328 -10.0061,-4.0914 -1.5228,-4.29208 -0.2083,-7.82471 4.54345,-9.93262 0.79488,-0.11124 1.23647,-0.10513 2.00263,-0.17474 3.74064,-1.32227 5.77606,0.53521 7.06721,3.27029 1.83061,3.87784 0.84468,7.73996 -2.77417,10.75949 -0.41156,0.10843 -0.71919,0.0631 -0.83302,0.16898 z"
   id="path261" />
  <path
   fill="#d5e0e0"
   opacity="1"
   stroke="none"
   d="m 321.52722,164.36142 c 0.6904,-1.47186 1.82126,-1.79187 3.29038,-2.02417 3.85025,1.2096 4.04507,3.32941 1.13885,6.20005 -0.43146,0.1665 -0.80328,0.16049 -0.97232,0.23794 -1.43252,-0.3378 -3.3045,0.1691 -3.55609,-2.36886 -0.3768,-0.38111 -0.57993,-0.43631 -0.46744,-0.49997 0.40601,-0.41593 0.49637,-0.82343 0.56662,-1.54499 z"
   id="path265" />
  <path
   fill="#d5e0e0"
   opacity="1"
   stroke="none"
   d="m 245.95117,161.22211 c 2.63382,-3.17508 4.84958,-3.92099 6.00302,1.21829 -3.56219,4.30448 -4.26535,4.15949 -6.00302,-1.21829 z"
   id="path266" />
  <path
   fill="#e7ecdf"
   opacity="1"
   stroke="none"
   d="m 702.40985,262.14127 c 3.47022,2.00946 5.93451,4.42896 3.72302,8.52151 -1.08392,2.00571 -2.98797,3.22666 -5.34686,3.01688 -2.36249,-0.21014 -4.03692,-1.81894 -4.75708,-3.91055 -1.07519,-3.12262 0.50116,-5.44531 3.15942,-7.53818 0.096,-0.51242 0.0174,-0.65759 -0.17034,-0.86877 0.44061,-0.41404 0.90423,-0.38175 1.59033,0.29294 0.66021,0.37564 1.07379,0.45538 1.80151,0.48617 z"
   id="path292" />
  <path
   fill="#374b5c"
   opacity="1"
   stroke="none"
   d="m 658.24548,297.71555 c -0.0377,-1.63013 0.25989,-3.36813 0.5954,-5.48691 1.27149,1.60819 1.7337,3.55719 -0.5954,5.48691 z"
   id="path294" />
  <path
   fill="#354a5c"
   opacity="1"
   stroke="none"
   d="m 756.59168,317.03873 c 0.9934,0.37814 1.1911,1.21256 1.20001,2.45935 -1.47803,0.0289 -2.27527,-0.65146 -1.20001,-2.45935 z"
   id="path295" />
  <path
   fill="#354a5c"
   opacity="1"
   stroke="none"
   d="m 758.58923,327.03846 c 0.99359,0.37838 1.19544,1.21258 1.2016,2.46215 -1.47577,0.0256 -2.27551,-0.65454 -1.2016,-2.46215 z"
   id="path296" />
  <path
   fill="#354a5c"
   opacity="1"
   stroke="none"
   d="m 757.62469,322.00663 c 0.495,0.29251 0.80011,0.77057 1.12946,1.5411 -0.81934,0.0657 -1.85242,-0.007 -1.12946,-1.5411 z"
   id="path297" />
  <path
   fill="#431224"
   opacity="1"
   stroke="none"
   d="m 82.7339,585.02142 142.61329,90.23285 69.54542,84.54228 -172.19478,-92.08428 C 116.47428,665.97834 86.63041,590.8999 82.7339,585.02142 Z"
   id="path299" />
  <path
   fill="#973021"
   opacity="1"
   stroke="none"
   d="m 289.51626,754.87754 -94.29201,-116.84076 32.66682,-24.27169 43.93928,56.41817 11.74073,17.36115 0.24929,0.27429 8.72098,11.80249 0.23917,0.22455 2.01956,3.69336 46.51475,61.04637 z"
   id="path300" />
  <path
   fill="#c96546"
   opacity="1"
   stroke="none"
   d="m 156.01703,589.93143 -6.81999,-78.51295 c 2.25237,1.31401 79.18214,102.38915 79.18214,102.38915 l -32.85629,24.66757 z"
   id="path313" />
  <path
   fill="#a73c27"
   opacity="1"
   stroke="none"
   d="m 757.28727,500.5166 7.11118,-76.5589 c 1.72419,-18.56263 -116.22525,148.51123 -125.19562,160.30743 -3.47739,4.75269 -71.00791,85.03402 -72.31321,91.19539 l 85.00076,-52.82132 c 20.5744,-1.89426 42.52947,-29.5391 60.74044,-40.93468 13.3285,-7.2882 55.46407,-122.31125 44.65645,-81.18792 z"
   id="path21-3" />
  <path
   fill="#391226"
   opacity="1"
   stroke="none"
   d="m 460.19047,758.29229 c -0.40781,-6.60266 5.7377,-9.21808 8.13724,-13.95312 9.0744,-11.37646 101.22291,-118.14325 91.42854,-128.14353 l -105.26269,71.44362 c -5.22376,1.97089 -21.91274,24.41811 -25.62929,28.12746 -2.10028,5.15161 -6.58582,7.83606 -9.79285,11.59271 -5.48315,6.42273 -17.06543,18.7229 -17.06543,18.7229 55.60971,-62.31808 -99.2963,85.86933 58.18448,12.20996 z"
   id="path17-2" />
  <path
   fill="#fbf6dc"
   opacity="1"
   stroke="none"
   d="m 763.29499,428.79376 c -11.71747,7.44043 -23.51726,15.1242 -35.15294,23.04895 -61.99313,42.22156 -123.94236,84.50757 -185.92555,126.74377 -1.79306,1.2218 -3.44418,2.53388 -4.96655,4.52838 -0.18625,1.56678 0.58099,2.44385 1.46512,3.22138 8.85824,7.78985 17.88928,15.37494 27.41845,22.91754 0.86475,0.21484 1.37204,0.21912 2.24994,0.0294 2.39438,-1.11334 3.58188,-2.95673 4.8833,-4.66931 19.2067,-25.27454 38.97632,-50.10804 58.70975,-74.96991 1.85599,-2.33832 3.73245,-4.66107 6.17697,-7.23383 0.58548,5.23609 0.57489,10.09845 0.0701,14.89203 -1.51999,14.43372 -0.45557,28.89185 -0.6774,43.33539 -0.0277,1.80188 0.0943,3.71051 2.27976,4.7738 z"
   id="path77-6" />
  <path
   fill="#8c2a1f"
   opacity="1"
   stroke="none"
   d="m 535.9229,583.92157 -86.33946,60.36284 c -9.13859,10.56862 -10.10886,16.39628 -51.57264,100.01615 -1.11662,2.25189 -5.23784,4.48721 -2.23759,6.56607 4.04138,0.63495 61.43536,-61.17614 63.22411,-63.36944 7.24671,-8.88574 13.63684,-18.43036 20.77076,-27.40778 5.06439,-6.37305 9.29864,-13.38275 15.11978,-19.62872 3.81429,-16.12452 44.25598,-39.40989 41.03504,-56.53912 z"
   id="path92-9" />
  <path
   fill="#c96546"
   opacity="1"
   stroke="none"
   d="m 458.56269,686.57421 c 0,0 82.16686,-52.43829 115.16849,-73.11202 0,0 -27.37278,-22.15646 -37.23667,-30.44387 z"
   id="path94-0" />
  <path
   fill="#431224"
   opacity="1"
   stroke="none"
   d="m 713.37582,580.73537 -142.61329,90.23285 -69.54542,84.54228 159.03533,-67.55985 c 6.22355,-1.73393 49.22687,-101.3368 53.12338,-107.21528 z"
   id="path299-0" />
  <path
   fill="#973021"
   opacity="1"
   stroke="none"
   d="m 506.59346,750.59149 94.29201,-116.84076 -32.66682,-24.27169 -43.93928,56.41817 -11.74073,17.36115 -0.24929,0.27429 -8.72098,11.80249 -0.23917,0.22455 -2.01956,3.69336 -46.51475,61.04637 z"
   id="path300-3" />
  <path
   fill="#c96546"
   opacity="1"
   stroke="none"
   d="m 640.09269,585.64538 6.81999,-78.51295 c -2.25237,1.31401 -79.18214,102.38915 -79.18214,102.38915 l 32.85629,24.66757 z"
   id="path313-9" />
  <path
   fill="#973021"
   opacity="1"
   stroke="none"
   d="m 267.72498,664.642 c 0.037,0.63703 0.0432,1.08216 0.0297,1.86096 -4.68848,-0.83618 -7.57758,-4.6007 -7.8974,-10.36279 3.31168,1.48566 3.82584,5.82398 7.46329,7.80884 0.31634,0.11688 0.37368,0.50116 0.40439,0.69299 z"
   id="path332" />
  <path
   fill="#571319"
   opacity="1"
   stroke="none"
   d="m 287.93359,662.00156 c 0.83094,0.18414 1.7081,0.71985 2.76142,1.51727 -1.02597,0.26874 -2.25132,0.32276 -2.76142,-1.51727 z"
   id="path338" />
  <path
   fill="#571319"
   opacity="1"
   stroke="none"
   d="m 290.98743,663.99045 c 0.16763,-0.0646 0.48861,0.0966 0.96093,0.48749 -0.16833,0.066 -0.48797,-0.0978 -0.96093,-0.48749 z"
   id="path339" />
  <path
   fill="#351528"
   opacity="1"
   stroke="none"
   d="m 379.32889,291.28516 c 9.81232,-7.44708 20.1752,-8.67996 30.63516,-3.05188 9.05792,4.87375 13.46344,13.12152 13.15906,23.4939 -0.35242,12.01034 -8.94055,22.33883 -20.58032,25.15368 -11.08234,2.68006 -22.84104,-2.44568 -28.50986,-12.42773 -6.01386,-10.58966 -4.05728,-23.40326 5.29596,-33.16797 z"
   id="path358" />
  <path
   fill="#371528"
   opacity="1"
   stroke="none"
   d="m 427.27637,239.74949 c 0.4909,-3.98713 4.21264,-4.65271 6.86706,-4.51752 3.32538,0.16937 6.70368,-0.49573 10.33448,0.43963 0.61657,1.31586 0.89801,2.48227 1.17932,4.00977 -5.97315,0.2915 -11.94617,0.22183 -18.38086,0.0681 z"
   id="path359" />
  <path
   fill="#eef2dd"
   opacity="1"
   stroke="none"
   d="m 238.56982,499.42398 c 3.10245,0.7707 5.19535,2.32996 6.45862,5.31574 0.71433,4.17096 -0.75711,7.11743 -4.34515,8.65106 -2.72086,1.16303 -5.53235,0.93408 -7.72876,-1.35064 -2.69098,-2.79902 -3.23276,-5.97236 -1.13934,-9.76093 0.62985,-1.54358 0.41189,-3.51062 2.61071,-2.66187 1.19281,0.1966 2.4776,0.0324 4.14392,-0.19336 z"
   id="path360" />
  <path
   fill="#f3f4dd"
   opacity="1"
   stroke="none"
   d="m 163.67627,187.23725 c -0.47467,0.75656 -0.86493,1.12564 -1.35681,1.75156 -7.08411,3.8749 -11.73523,3.4764 -15.16614,-1.03379 -3.08282,-4.05261 -2.78955,-10.25903 0.64636,-13.67886 3.61014,-3.59323 9.11789,-3.47422 14.65381,0.49243 0.29117,0.52685 0.4231,0.79306 0.93369,1.0531 1.54757,3.70621 2.09958,7.35129 0.28909,11.41556 z"
   id="path362" />
  <path
   fill="#eef2dd"
   opacity="1"
   stroke="none"
   d="m 546.87695,509.14792 c -0.513,-3.77453 0.0294,-7.06823 3.31037,-8.78912 3.28131,-1.72125 6.63849,-1.26807 9.77288,1.51636 2.61469,7.85711 -0.25378,12.67584 -6.77618,11.96631 -2.84021,-0.30903 -4.84363,-1.87201 -6.30707,-4.69355 z"
   id="path392" />
  <path
   fill="#e7ecdf"
   opacity="1"
   stroke="none"
   d="m 223.60126,464.4733 c 0.94317,3.21906 1.30969,5.96668 -1.63996,7.81342 -1.66507,1.04248 -3.55063,1.04644 -5.05276,-0.20661 -2.43662,-2.03265 -2.95398,-4.58319 -1.15445,-7.77905 3.25748,-3.79199 4.37472,-3.77472 7.84717,0.17224 z"
   id="path394" />
  <path
   fill="#374b5c"
   opacity="1"
   stroke="none"
   d="m 226.30097,464.29838 c 0.0307,-0.0144 -0.0307,0.0143 0,0 z"
   id="path398" />
  <path
   fill="#d5e0e0"
   opacity="1"
   stroke="none"
   d="m 484.15375,270.34189 c 3.12347,-3.6943 5.49756,-3.16339 7.42126,1.16584 1.12177,2.04852 0.19727,3.06097 -1.55853,4.04272 -0.33014,0.16373 -0.31152,0.18478 -0.32471,0.16956 -3.79626,0.48498 -6.40442,-0.33912 -5.53802,-5.37812 z"
   id="path401" />
  <path
   fill="#d5e0e0"
   opacity="1"
   stroke="none"
   d="m 486.94971,310.73688 c 2.22326,-1.53509 3.70868,-0.82904 4.59405,1.0972 0.56757,1.23489 0.43268,2.6095 -0.72033,3.58209 -0.95716,0.80731 -2.1706,1.01923 -3.18024,0.28937 -1.6684,-1.20596 -2.13281,-2.81558 -0.69348,-4.96866 z"
   id="path402" />
  <path
   fill="#d5e0e0"
   opacity="1"
   stroke="none"
   d="m 522.37176,353.43702 c 0.45002,-0.54547 0.81537,-0.73716 1.3216,-1.08017 2.35767,0.098 4.07098,0.85717 3.6485,3.56128 -0.21369,1.36767 -1.14362,2.01867 -2.48395,1.84362 -2.35474,-0.30752 -2.81067,-1.93563 -2.48615,-4.32473 z"
   id="path403" />
  <path
   fill="#371528"
   opacity="1"
   stroke="none"
   d="m 501.33643,427.20816 c 0.64166,-2.54931 0.12994,-4.68304 -0.64808,-7.19616 0.12031,-3.82733 5.71412,-5.08484 3.51331,-9.84607 3.77246,-1.62634 5.45007,-0.56818 5.96008,3.79919 2.02692,17.3573 1.8227,34.67945 0.99866,52.1109 -0.73572,15.56269 -1.02899,31.19251 0.35407,46.79493 0.50579,5.70617 1.08703,11.47412 -1.09674,17.21624 -1.40217,3.68708 -1.43262,8.04206 0.1,11.74341 1.96356,4.74213 0.9812,9.50958 1.24847,14.26569 0.0558,0.99402 -0.0978,2.16357 -1.35473,2.2998 -1.27197,0.13782 -1.37958,-1.12726 -1.87726,-1.95489 -0.93573,-1.55628 -0.0296,-4.32782 -3.3429,-4.60022 -3.41815,-3.05536 -7.48211,-4.0116 -11.27239,-5.62561 -5.01905,-2.13715 -9.55018,-5.16339 -12.92737,-10.09375 -0.83692,-1.16443 -0.9823,-2.11249 -0.31922,-3.5235 6.39942,3.40698 12.47351,7.19763 18.84735,11.16437 0.88428,0.61145 1.542,0.57147 2.48127,0.25464 1.57104,-5.07673 0.23962,-10.07709 1.23706,-15.3042 4.8927,-4.34955 3.17163,-9.88044 2.03448,-14.13532 -2.02197,-7.56592 -1.91607,-14.47992 1.10767,-21.59106 1.06292,-2.49988 0.27697,-5.31501 -0.12049,-7.86597 -1.0827,-6.94849 -0.66174,-14.20386 -4.19494,-21.02142 -0.33527,-6.6416 -0.39691,-13.00275 -0.35083,-19.82154 0.7738,-1.0816 0.49096,-2.21234 1.64489,-2.86694 0.86396,-0.28406 1.87897,-0.11279 1.85541,-0.69934 -0.0503,-1.25287 -1.1521,-0.33069 -2.07745,-0.68274 -1.33044,-2.17401 -0.58887,-4.35639 -0.81897,-6.80304 -0.30591,-1.55841 0.89398,-2.83453 -0.38904,-4.21661 -0.3515,-0.61689 -0.4519,-1.04425 -0.59228,-1.80079 z"
   id="path406" />
  <path
   fill="#35172b"
   opacity="1"
   stroke="none"
   d="m 501.69379,464.25541 c 5.14514,-0.21589 4.31518,4.21228 4.8388,7.00903 1.16584,6.22748 1.58185,12.59833 2.22742,18.91846 0.20252,1.98236 -0.41473,3.72064 -1.26556,5.63 -2.12043,4.75842 -3.98114,9.78119 -1.1706,15.01776 2.68695,5.00617 1.14582,10.39264 1.39716,15.61194 0.0959,1.9903 -1.44208,2.35651 -3.48627,2.37134 -2.25812,-4.2348 -1.74719,-8.78845 -1.83075,-13.17725 -0.27246,-14.31549 -6.1e-4,-28.63836 -0.37158,-43.38226 -0.29248,-2.80359 -0.3642,-5.18298 -0.33862,-7.99902 z"
   id="path407" />
  <path
   fill="#261316"
   opacity="1"
   stroke="none"
   d="m 501.71887,472.28983 c 1.57752,1.0611 1.07001,2.98828 1.0788,4.76672 0.0445,8.99292 0.25879,17.99439 -0.0502,26.97693 -0.27558,8.00989 0.92981,15.91217 1.06933,24.33289 -0.71911,5.81402 1.51972,11.44812 -1.75207,16.50964 -0.46588,-0.23352 -0.66767,-0.37927 -0.67652,-0.84485 0.20795,-23.97369 0.2229,-47.62768 0.33069,-71.74133 z"
   id="path408" />
  <path
   fill="#371528"
   opacity="1"
   stroke="none"
   d="m 468.71393,524.38474 c 2.63586,1.31659 4.9685,2.78802 7.58539,4.52301 0.19653,0.55176 0.10901,0.83984 -0.34632,1.38611 -4.10241,0.75152 -7.21557,-0.18549 -9.19323,-4.03211 0.0584,-0.43042 0.0566,-0.44079 0.0622,-0.44305 0.48065,-0.49322 0.99164,-0.93958 1.89191,-1.43396 z"
   id="path409" />
  <path
   fill="#35172b"
   opacity="1"
   stroke="none"
   d="m 480.91156,532.04703 c 0.0293,1.06861 -0.0275,1.96979 -0.0915,3.32251 -1.67597,0.40625 -3.44714,0.70099 -4.82276,-1.24457 -1.06958,-3.91327 1.25818,-3.08691 3.67139,-2.59375 0.72022,0.10065 0.95477,0.15857 1.24286,0.51581 z"
   id="path410" />
  <path
   fill="#371528"
   opacity="1"
   stroke="none"
   d="m 479.9751,531.44394 c -1.28546,0.5315 -3.01685,-0.0753 -4.0564,2.01874 -1.24164,0.30884 -2.43384,0.38379 -3.02557,-1.30957 0.13385,-1.17407 0.93542,-1.42609 1.70892,-2.11456 0.49115,-0.33441 0.78107,-0.46259 1.52619,-0.72895 1.53686,0.53199 2.61852,1.20215 3.84686,2.13434 z"
   id="path411" />
  <path
   fill="#261316"
   opacity="1"
   stroke="none"
   d="m 502.57062,431.54197 c 0.4245,2.7323 -0.19739,5.25811 0.97802,7.99578 0.57398,0.70038 0.69819,1.15046 0.45466,1.95789 -0.70685,0.86597 -1.21552,1.42517 -1.95295,2.15436 -0.35717,-3.54285 -0.48559,-7.25574 -0.70318,-11.42682 -0.0892,-0.45819 0.17786,-0.29645 0.32397,-0.35144 0.31147,-0.232 0.47675,-0.409 0.89948,-0.32977 z"
   id="path412" />
  <path
   fill="#35172b"
   opacity="1"
   stroke="none"
   d="m 468.81641,524.01859 c -0.2981,0.68671 -0.79688,1.16199 -1.64222,1.71753 -0.33697,-0.40533 -0.32745,-0.89105 -0.30358,-1.74097 0.59118,-0.30548 1.16809,-0.2467 1.9458,0.0234 z"
   id="path413" />
  <path
   fill="#aa8171"
   opacity="1"
   stroke="none"
   d="m 501.28449,543.72623 c 0.37359,0.15643 0.4505,0.3277 0.52179,0.78052 -0.57489,0.17511 -1.14423,0.0686 -1.85023,-0.30292 0.25281,-0.33099 0.64234,-0.39685 1.32844,-0.4776 z"
   id="path414" />
  <path
   fill="#35172b"
   opacity="1"
   stroke="none"
   d="m 474.42871,529.81668 c 0.25543,0.8877 -0.0803,1.60035 -1.30652,1.9452 -3.67743,-1.12189 -7.41839,-1.8349 -8.29223,-6.57612 0.48242,-0.10803 0.98132,0.14869 1.73425,0.52546 2.13568,2.40997 4.49426,3.8305 7.8645,4.10546 z"
   id="path427" />
  <path
   fill="#35172b"
   opacity="1"
   stroke="none"
   d="m 503.04578,431.57206 c -0.38617,0.22894 -0.55463,0.23175 -0.97571,0.23962 -0.36151,-0.74573 -0.47034,-1.49658 -0.48584,-2.61981 1.28619,-0.10529 2.92206,-1.0257 3.49091,0.72754 0.082,0.25293 -1.17457,0.94012 -2.02936,1.65265 z"
   id="path428" />
  <path
   fill="#eef2dd"
   opacity="1"
   stroke="none"
   d="m 656.91724,203.01731 c 3.61139,-2.13272 6.76721,-1.87387 10.25879,0.29059 1.22662,0.25055 1.90106,0.66357 2.64727,1.66989 2.17127,7.06762 -1.39288,12.65371 -7.92138,13.00512 -2.28498,0.12305 -4.24158,-0.54687 -5.29609,-3.27917 -0.0578,-0.40936 -0.10986,-0.55237 -0.17578,-0.5903 -4.39477,-1.67819 -2.41778,-5.00458 -2.11523,-8.28388 0.27862,-1.63656 1.2229,-2.20077 2.60242,-2.81225 z"
   id="path429" />
  <path
   fill="#eef2dd"
   opacity="1"
   stroke="none"
   d="m 554.35742,181.91105 c 2.43042,-0.39875 4.45783,-0.36835 5.89167,1.3663 2.26098,2.73553 2.84509,5.76239 0.22308,8.51074 -2.15637,2.26029 -4.95716,3.00858 -7.56268,0.72058 -2.76209,-2.42541 -3.98212,-5.3804 -1.27533,-8.69211 0.60736,-0.74313 1.55169,-1.2109 2.72326,-1.90551 z"
   id="path430" />
  <path
   fill="#e7ecdf"
   opacity="1"
   stroke="none"
   d="m 500.82691,212.93287 c -1.16358,0.88705 -1.94758,1.55102 -2.90327,2.47174 -0.77972,1.01529 -1.55871,1.13052 -2.77484,0.60275 -0.76275,-0.55863 -1.19091,-0.86057 -1.87744,-1.21338 -2.35327,-2.76395 -3.37103,-5.6347 -0.3631,-8.25357 2.56855,-2.23633 5.08149,-1.6362 7.40625,1.19809 1.83234,1.59753 1.68671,3.24356 0.5124,5.19437 z"
   id="path432" />
  <path
   fill="#405a69"
   opacity="1"
   stroke="none"
   d="m 650.50421,189.81083 c -0.1026,0.13122 -0.20526,0.14602 -0.30786,0.16082 0.1026,-0.0924 0.20526,-0.18481 0.30786,-0.16082 z"
   id="path441" />
  <path
   fill="#405a69"
   opacity="1"
   stroke="none"
   d="m 479.20892,130.99402 c 0.38269,-0.47784 0.37513,-0.35487 0,0 z"
   id="path442" />
  <path
   fill="#405a69"
   opacity="1"
   stroke="none"
   d="m 649.29285,187.33545 c -0.0143,-0.0306 0.0143,0.0306 0,0 z"
   id="path444" />
  <path
   fill="#405a69"
   opacity="1"
   stroke="none"
   d="m 637.20471,171.04346 c -0.0411,0.1962 -0.38397,0.4101 -1.04065,0.59732 0.0371,-0.211 0.38794,-0.39532 1.04065,-0.59732 z"
   id="path445" />
  <path
   fill="#405a69"
   opacity="1"
   stroke="none"
   d="m 472.30237,173.29972 c 0.0291,-0.0132 -0.0291,0.0133 0,0 z"
   id="path446" />
  <path
   fill="#f3f4dd"
   opacity="1"
   stroke="none"
   d="m 208.10468,124.30549 c 5.50601,-4.17034 11.30899,-4.48786 14.84231,-0.79795 3.04382,3.17873 3.60831,8.35883 1.30432,11.96947 -2.39682,3.75616 -7.82791,5.51462 -11.86633,3.84199 -4.0809,-1.69021 -6.42584,-5.94656 -5.67191,-10.55319 0.20978,-1.28154 0.81049,-2.49907 1.3382,-4.08371 0.10632,-0.33777 -0.003,-0.38775 0.0534,-0.37661 z"
   id="path447" />
  <path
   fill="#eef2dd"
   opacity="1"
   stroke="none"
   d="m 266.82416,235.23728 c 0.62195,-2.28308 2.28854,-2.95581 4.07388,-3.99768 0.27454,-0.48697 0.36136,-0.68686 0.68231,-0.65863 3.65012,0.39108 6.66697,1.27249 8.4603,4.94098 0.35519,6.04461 -1.96845,9.15478 -6.49213,9.18777 -4.19986,0.0306 -6.73547,-3.40558 -6.72436,-9.47244 z"
   id="path449" />
  <path
   fill="#364c5e"
   opacity="1"
   stroke="none"
   d="m 50.05229,284.59128 c -0.0591,-0.61773 0.11658,-1.46582 0.52696,-2.54461 0.0591,0.61758 -0.11657,1.46591 -0.52696,2.54461 z"
   id="path462" />
  <path
   fill="#364c5e"
   opacity="1"
   stroke="none"
   d="m 180.29446,299.33353 c -0.0133,-0.029 0.0133,0.029 0,0 z"
   id="path463" />
  <path
   fill="#364c5e"
   opacity="1"
   stroke="none"
   d="m 51.01999,279.69886 c -0.0676,-0.17051 0.12897,-0.42212 0.59042,-0.75418 0.0666,0.16995 -0.13035,0.42111 -0.59042,0.75418 z"
   id="path464" />
  <path
   fill="#d5e0e0"
   opacity="1"
   stroke="none"
   d="m 302.64621,270.47812 c 1.39352,-2.27844 3.03464,-3.10782 5.04013,-1.46521 1.42093,1.16382 1.66946,2.84882 0.93311,4.51297 -0.66196,1.49601 -1.94291,2.40555 -3.58075,1.93094 -2.26691,-0.65689 -3.01789,-2.36648 -2.39249,-4.9787 z"
   id="path469" />
  <path
   fill="#f3f4dd"
   opacity="1"
   stroke="none"
   d="m 724.7475,346.96338 c -8.79907,3.95706 -16.70117,0.67469 -17.86127,-7.04193 -0.82013,-5.45584 1.7926,-10.24655 6.59839,-12.09842 5.01099,-1.93088 10.80487,-0.24786 13.77844,4.00235 3.00653,4.2973 2.13019,10.18659 -2.51556,15.138 z"
   id="path477" />
  <path
   fill="#f5f5dc"
   opacity="1"
   stroke="none"
   d="m 596.44641,384.92588 c 4.08289,5.34341 4.77942,10.93396 1.98535,14.81994 -3.0863,4.29248 -7.40252,5.09894 -12.35632,4.1817 -2.50824,-0.46441 -3.92059,-2.31677 -5.96875,-3.94854 -2.88092,-2.49057 -4.43701,-5.05399 -2.07129,-8.84424 0.37085,-0.77115 0.54755,-1.19687 0.74304,-1.97079 -0.28473,-3.26621 2.09272,-4.69242 3.84735,-6.84226 1.07978,-0.42175 1.81995,-0.39822 2.86145,0.14407 0.77857,0.193 1.23664,0.18051 2.01215,0.0306 1.38007,-0.76718 2.48346,-1.01321 4.01398,-0.22198 1.9273,0.71713 3.5899,1.01077 4.93304,2.65155 z"
   id="path478" />
  <path
   fill="#f3f4dd"
   opacity="1"
   stroke="none"
   d="m 722.59595,303.60709 c -0.15131,5.07721 -1.80451,8.97626 -6.8396,10.65161 -5.39166,1.79401 -10.81793,-0.44314 -12.93036,-5.37054 -2.27619,-5.30911 -0.32764,-11.11463 4.60876,-13.73117 4.711,-2.49701 10.45807,-0.86206 13.46839,3.919 0.60827,0.96607 0.89538,2.13431 1.50287,3.50186 0.14276,0.46049 0.11322,0.62848 0.18994,1.02924 z"
   id="path479" />
  <path
   fill="#eef2dd"
   opacity="1"
   stroke="none"
   d="m 688.53027,374.76691 c -3.82574,2.18552 -6.18615,0.43012 -7.60901,-2.52084 -1.18505,-2.45773 -0.47357,-4.99576 1.92402,-6.58573 2.34484,-1.55496 5.03405,-1.53131 6.79889,0.62723 2.24707,2.74838 2.36334,5.80325 -1.1139,8.47934 z"
   id="path481" />
  <path
   fill="#e7ecdf"
   opacity="1"
   stroke="none"
   d="m 657.38672,394.05368 c 2.49176,1.46409 5.17041,2.71436 4.06036,6.00135 -0.78515,2.32507 -2.63824,4.2912 -5.21289,3.20502 -3.37317,-1.42304 -4.4812,-4.18451 -2.22711,-7.97654 0.93738,-1.23086 1.909,-1.52627 3.37964,-1.22983 z"
   id="path483" />
  <path
   fill="#d5e0e0"
   opacity="1"
   stroke="none"
   d="m 542.08447,389.5156 c -1.35681,1.49356 -2.4021,2.72619 -4.4223,1.89529 -1.97601,-0.81265 -2.1225,-2.25097 -1.71075,-4.32705 0.12225,-0.33423 0.51202,-0.43747 0.54309,-0.53635 1.10035,-0.70511 1.1192,-0.81991 1.9104,-0.9841 1.31921,0.73895 2.22888,1.2478 3.34021,2.00391 0.48321,0.66925 0.59515,1.13226 0.33935,1.9483 z"
   id="path484" />
  <path
   fill="#d5e0e0"
   opacity="1"
   stroke="none"
   d="m 625.51599,368.71512 c 2.37732,0.34647 3.5152,1.39484 2.62146,3.6677 -0.53326,1.35605 -1.61944,2.29419 -2.98669,1.79287 -1.97327,-0.72348 -1.59961,-2.53009 -1.18799,-4.5133 0.47479,-0.51654 0.86542,-0.67694 1.55322,-0.94727 z"
   id="path487" />
  <path
   fill="#374b5c"
   opacity="1"
   stroke="none"
   d="m 595.85108,357.15738 c -0.0259,-0.20349 0.46404,-0.26388 0.7102,-0.24609 0.088,0.36166 -0.0701,0.70554 -0.22827,1.04938 -0.15198,-0.19992 -0.30402,-0.39984 -0.48193,-0.80329 z"
   id="path497" />
  <path
   fill="#421123"
   opacity="1"
   stroke="none"
   d="m 609.30986,341.81056 c -17.42738,10.43454 -49.11462,-0.1912 -57.39742,-7.79328 -39.67803,-36.4171 -22.67913,-68.21645 -20.47226,-70.55531 1.54449,-1.63687 30.99946,32.18207 77.86968,78.34859 z"
   id="path498" />
  <path
   fill="#421123"
   opacity="1"
   stroke="none"
   d="m 592.4566,233.77663 c -26.32702,-18.13953 25.61709,-7.42017 40.93083,8.97872 16.44251,17.60764 17.79414,47.0514 14.97407,44.97014 -27.86614,-20.56564 -71.95549,-69.58478 -55.9049,-53.94886 z"
   id="path498-7" />
  <path
   fill="#a73c27"
   opacity="1"
   stroke="none"
   d="m 626.38435,330.63068 c -6.50747,-1.79041 -77.82183,-82.69964 -79.57163,-89.10943 4.82788,-5.48739 13.91794,-10.91777 21.58572,-13.37384 7.3924,5.57046 63.8738,70.44356 72.46998,81.65956 -4.98464,8.4722 -6.98161,13.99298 -14.48407,20.82371 z"
   id="path504" />
  <path
   fill="#571319"
   opacity="1"
   stroke="none"
   d="m 649.03325,288.13467 c -4.6028,-5.31085 10.71775,12.49008 -63.03338,-63.79702 6.24679,-6.2e-4 -18.0138,1.17237 -17.60974,4.16904 0.82356,2.40994 56.78378,63.88268 73.34475,81.42119 6.14828,6.5112 6.16345,-15.56169 7.29837,-21.79321 z"
   id="path507" />
  <path
   fill="#e7ecdf"
   opacity="1"
   stroke="none"
   d="m 681.04871,232.98917 c 1.5625,-0.0797 3.09289,-0.68646 4.46765,-0.43671 2.99023,0.54325 4.74823,2.54908 4.30438,5.69098 -0.50299,3.56046 -2.9989,5.20615 -6.38989,4.77396 -3.08319,-0.39298 -4.49402,-2.7818 -4.32709,-5.74396 0.0673,-1.19345 1.10821,-2.33206 1.85992,-3.80893 0.15381,-0.31332 -0.0178,-0.61404 0.085,-0.47534 z"
   id="path521" />
  <path
   fill="#8c2a1f"
   opacity="1"
   stroke="none"
   d="m 256.88742,652.16214 c 0.88178,0.46827 1.75574,1.29602 2.74417,2.4076 -1.4436,0.24725 -2.74701,-0.10236 -2.74417,-2.4076 z"
   id="path525" />
  <path
   fill="#8c2a1f"
   opacity="1"
   stroke="none"
   d="m 251.10345,644.97855 c 0.36506,-0.041 0.87809,0.1593 1.54505,0.59863 -0.36307,0.0402 -0.88007,-0.15851 -1.54505,-0.59863 z"
   id="path526" />
  <path
   fill="#c96546"
   opacity="1"
   stroke="none"
   d="m 259.66312,640.03592 c -0.22522,0.0142 -0.54496,-0.26532 -0.89042,-0.86535 0.24814,-0.0231 0.52204,0.27417 0.89042,0.86535 z"
   id="path529" />
  <path
   fill="#f5f5dc"
   opacity="1"
   stroke="none"
   d="m 604.20819,435.23728 c 1.96173,-6.02533 5.57294,-9.85724 11.77179,-10.00354 5.86353,-0.13843 9.95679,2.89422 12.48212,8.56079 0.58197,9.1275 -1.69794,13.09717 -7.90326,15.48791 -7.82794,3.01587 -18.55469,-4.70819 -16.35065,-14.04516 z"
   id="path531" />
  <path
   fill="#e7ecdf"
   opacity="1"
   stroke="none"
   d="m 576.60748,472.43143 c -3.63354,1.99786 -5.60486,0.39179 -7.03515,-2.50519 -1.35608,-2.7467 -0.26026,-4.84204 1.97296,-6.41565 2.09393,-1.47552 4.23315,-0.9392 5.78668,0.84821 2.28809,2.63263 2.33337,5.37732 -0.72449,8.07263 z"
   id="path532" />
  <path
   fill="#d5e0e0"
   opacity="1"
   stroke="none"
   d="m 560.54199,425.68717 c -0.40637,-0.38373 -0.51501,-0.6969 -0.56494,-1.0191 -0.28235,-1.82245 -0.59448,-3.70222 1.68384,-4.52588 0.97253,-0.35163 2.06763,-0.22504 2.66009,0.70031 1.2074,1.88605 1.25379,3.68201 -1.20111,5.17463 -0.95648,0.009 -1.60479,-0.12702 -2.57788,-0.32996 z"
   id="path533" />
  <path
   fill="#2f394c"
   opacity="1"
   stroke="none"
   d="m 563.32904,500.34464 c -0.0311,0.0145 0.0311,-0.0145 0,0 z"
   id="path535" />
  <path
   fill="#35172b"
   opacity="1"
   stroke="none"
   d="m 503.88452,442.12931 c -0.0806,-0.7616 -0.0817,-1.19629 -0.0833,-1.95655 0.20038,-1.55804 -0.0695,-3.53387 1.96808,-2.86975 1.75006,0.57032 2.30023,2.41779 1.57635,4.16114 -0.62213,1.49841 -1.42737,3.52484 -3.46112,0.66516 z"
   id="path537" />
  <path
   fill="#35172b"
   opacity="1"
   stroke="none"
   d="m 506.29468,423.33323 c -0.0131,-0.0288 0.013,0.0287 0,0 z"
   id="path538" />
  <path
   fill="#7a2620"
   opacity="1"
   stroke="none"
   d="m 626.67564,330.16644 c -8.25717,6.29151 -8.1702,8.43549 -17.96812,11.46712 -8.94477,-8.48178 -68.05559,-69.77501 -76.75841,-78.5429 9.01705,-16.22468 5.76214,-10.81743 15.07558,-21.28117 53.25109,60.19066 53.56551,60.22716 79.65095,88.35695 z"
   id="path542" />
  <path
   fill="#af462c"
   opacity="1"
   stroke="none"
   d="m 604.85864,288.32505 c 0.607,0.43365 0.5705,0.93072 -0.0162,0.92041 -0.58582,-0.0103 -0.60504,-0.50849 0.0162,-0.92041 z"
   id="path544" />
  <circle
   style="fill:#ffffff;fill-opacity:0;stroke:#371528;stroke-width:30;stroke-dasharray:none;stroke-opacity:1"
   id="path546"
   cx="396.86652"
   cy="396.86652"
   r="381.86652" />
  <ellipse
   style="fill:#eef2dd;fill-opacity:1;stroke:#fbf8dd;stroke-width:0;stroke-dasharray:none;stroke-opacity:1"
   id="path548"
   cx="329.08734"
   cy="77.135368"
   rx="7.0873399"
   ry="7.2335072" />
  <path
   fill="#351528"
   opacity="1"
   stroke="none"
   d="m 546.47267,237.60624 c 22.88232,-17.36657 47.04852,-20.24165 71.44112,-7.11697 21.12305,11.36557 31.39671,30.59935 30.6869,54.78771 -0.82185,28.00808 -20.84934,52.09411 -47.99326,58.65832 -25.84398,6.24989 -53.26525,-5.70331 -66.48493,-28.98144 -14.02429,-24.69505 -9.46156,-54.57633 12.35017,-77.34762 z"
   id="path358-6"
   style="fill:#351528;fill-opacity:0;stroke:#351528;stroke-width:7.31562;stroke-dasharray:none;stroke-opacity:1" />
</svg>
